<svg width="512" height="512" viewBox="0 0 512 512" fill="none" xmlns="http://www.w3.org/2000/svg">
<g clip-path="url(#clip0_1341_296)">
<path fill-rule="evenodd" clip-rule="evenodd" d="M312.008 49.9978C229.17 49.9978 162.015 117.152 162.015 199.992C162.015 282.831 229.169 349.986 312.008 349.986C315.662 349.986 319.286 349.854 322.873 349.598C322.588 348.136 322.439 346.631 322.439 345.097C322.439 331.935 333.207 321.168 346.368 321.168H351.529C351.529 294.737 372.955 273.31 399.387 273.31C412.821 273.31 424.963 278.845 433.654 287.761C451.489 263.084 462 232.766 462 199.993C462.002 117.153 394.848 49.9978 312.008 49.9978Z" fill="#6D2F64"/>
<path fill-rule="evenodd" clip-rule="evenodd" d="M162.016 199.992C162.016 117.152 229.17 49.9978 312.01 49.9978C394.849 49.9978 462.004 117.152 462.004 199.992C462.004 232.765 451.492 263.084 433.657 287.759C436.244 290.413 438.526 293.366 440.446 296.562C443.068 295.839 445.829 295.451 448.681 295.451C457.265 295.451 465.032 298.95 470.63 304.6C490.456 274.599 502.001 238.645 502.001 199.993C502.001 95.063 416.938 10.0005 312.009 10.0005C258.041 10.0005 209.328 32.5026 174.74 68.6361C158.934 85.1484 146.079 104.508 137.02 125.868C127.36 148.644 122.017 173.694 122.017 199.993C122.017 241.835 135.543 280.518 158.461 311.908C170.097 327.844 184.153 341.901 200.088 353.537C231.48 376.456 270.165 389.984 312.009 389.984C343.293 389.984 372.809 382.42 398.834 369.026C381.294 369.026 363.754 369.026 346.212 369.026C334.699 369.026 325.001 360.528 322.873 349.598C319.286 349.855 315.663 349.986 312.009 349.986C229.17 349.986 162.016 282.831 162.016 199.992Z" fill="white"/>
<path fill-rule="evenodd" clip-rule="evenodd" d="M137.02 125.867C146.079 104.507 158.935 85.1474 174.74 68.6351C169.533 58.9095 159.277 52.2917 147.474 52.2917C144.621 52.2917 141.86 52.6797 139.239 53.4027C130.872 39.4713 115.615 30.1497 98.1822 30.1497C71.7503 30.1497 50.3242 51.5768 50.3242 78.0077H45.1634C32.0019 78.0077 21.2344 88.7753 21.2344 101.937C21.2344 114.943 31.9529 125.866 45.0064 125.866L137.02 125.867Z" fill="#B77DAE"/>
<path fill-rule="evenodd" clip-rule="evenodd" d="M399.388 273.309C372.956 273.309 351.53 294.736 351.53 321.167H346.369C333.208 321.167 322.44 331.934 322.44 345.096C322.44 346.63 322.589 348.136 322.874 349.596C325.002 360.526 334.699 369.025 346.213 369.025H398.835H479.504C491.878 369.025 502.003 358.9 502.003 346.526C502.003 334.15 491.879 324.027 479.504 324.027C478.94 316.469 475.658 309.668 470.633 304.598C465.033 298.949 457.267 295.45 448.683 295.45C445.83 295.45 443.069 295.838 440.448 296.561C438.529 293.365 436.247 290.412 433.659 287.758C424.964 278.844 412.824 273.309 399.388 273.309Z" fill="#B77DAE"/>
<path fill-rule="evenodd" clip-rule="evenodd" d="M160.886 394.447L117.551 351.113L19.7984 444.792C6.75991 457.83 6.75991 479.164 19.7984 492.203C32.8368 505.241 54.171 505.241 67.2094 492.203L160.886 394.447Z" fill="white"/>
<path fill-rule="evenodd" clip-rule="evenodd" d="M117.552 351.113L160.886 394.447L200.089 353.536C184.153 341.9 170.098 327.844 158.462 311.907L117.552 351.113Z" fill="#679212"/>
<path d="M262.015 209.992C267.538 209.992 272.015 205.515 272.015 199.992C272.015 194.469 267.538 189.992 262.015 189.992H262.008C256.485 189.992 252.011 194.469 252.011 199.992C252.011 205.515 256.492 209.992 262.015 209.992Z" fill="black"/>
<path d="M312.013 209.992C317.536 209.992 322.013 205.515 322.013 199.992C322.013 194.469 317.536 189.992 312.013 189.992H312.006C306.483 189.992 302.009 194.469 302.009 199.992C302.009 205.515 306.49 209.992 312.013 209.992Z" fill="black"/>
<path d="M362.011 209.992C367.534 209.992 372.011 205.515 372.011 199.992C372.011 194.469 367.534 189.992 362.011 189.992H362.004C356.481 189.992 352.007 194.469 352.007 199.992C352.007 205.515 356.488 209.992 362.011 209.992Z" fill="black"/>
<path d="M488.026 315.162C486.877 311.142 485.123 307.377 482.874 303.968C501.95 272.689 512 236.886 512 199.993C512 89.7173 422.284 0.000976562 312.009 0.000976562C259.429 0.000976562 211.523 20.3971 175.787 53.6938C168.259 46.4961 158.122 42.2942 147.474 42.2942C146.252 42.2942 145.034 42.3482 143.822 42.4562C132.94 28.5518 116.024 20.1522 98.1824 20.1522C69.6056 20.1522 45.8016 40.9743 41.1488 68.2462C24.3245 70.2381 11.234 84.5885 11.234 101.939C11.234 120.647 26.3834 135.867 45.0056 135.867H122.559C115.725 156.006 112.017 177.574 112.017 199.993C112.017 240.837 124.324 278.861 145.426 310.55L12.8799 437.572C12.8289 437.621 12.778 437.671 12.728 437.721C-4.24135 454.691 -4.24135 482.303 12.728 499.274C21.2126 507.758 32.3582 512.001 43.5037 512.001C54.6492 512.001 65.7948 507.758 74.2794 499.274C74.3294 499.224 74.3794 499.172 74.4284 499.121L201.446 366.572C233.138 387.674 271.162 399.984 312.009 399.984C343.383 399.984 373.386 392.934 401.223 379.025H479.502C497.421 379.025 512 364.446 512 346.527C512 331.555 501.825 318.916 488.026 315.162ZM45.0066 115.867C37.5409 115.867 31.2342 109.488 31.2342 101.938C31.2342 94.2571 37.4829 88.0084 45.1636 88.0084H50.3244C55.8472 88.0084 60.324 83.5316 60.324 78.0088C60.324 57.1336 77.3073 40.1503 98.1824 40.1503C111.602 40.1503 123.745 47.029 130.666 58.5526C132.978 62.4014 137.571 64.2383 141.898 63.0434C143.705 62.5454 145.58 62.2924 147.474 62.2924C152.871 62.2924 158.012 64.4063 161.852 68.0322C149.278 82.3226 138.708 98.4149 130.582 115.868L45.0066 115.867ZM60.07 485.201C50.8924 494.305 36.019 494.282 26.8704 485.132C17.7208 475.983 17.6978 461.11 26.8014 451.931L117.404 365.105L146.894 394.596L60.07 485.201ZM160.733 380.152L131.845 351.264L157.428 326.747C165.771 336.903 175.093 346.225 185.249 354.568L160.733 380.152ZM132.017 199.992C132.017 100.744 212.762 19.9992 312.01 19.9992C411.258 19.9992 492.002 100.744 492.002 199.992C492.002 231.895 483.657 262.886 467.781 290.227C462.055 287.177 455.543 285.451 448.681 285.451C448.212 285.451 447.744 285.459 447.277 285.475C463.479 259.914 472.003 230.539 472.003 199.993C472.003 111.772 400.23 39.9993 312.01 39.9993C286.083 39.9993 260.319 46.3571 237.503 58.3856C232.618 60.9615 230.745 67.0092 233.32 71.895C235.895 76.7798 241.944 78.6518 246.829 76.0779C266.781 65.5573 289.32 59.9975 312.009 59.9975C389.202 59.9975 452.003 122.799 452.003 199.992C452.003 226.038 444.924 251.108 431.45 273.059C422.069 266.82 410.923 263.31 399.389 263.31C370.812 263.31 347.007 284.133 342.355 311.404C327.215 313.196 315.1 324.997 312.826 339.986C312.565 339.986 312.293 339.986 312.01 339.986C234.817 339.986 172.015 277.185 172.015 199.992C172.015 177.3 177.574 154.763 188.091 134.816C190.667 129.931 188.795 123.883 183.909 121.307C179.024 118.731 172.975 120.604 170.399 125.489C158.373 148.3 152.015 174.063 152.015 199.992C152.015 288.212 223.787 359.985 312.009 359.985C313.485 359.985 314.707 359.981 315.859 359.961C320.236 368.947 328.453 375.715 338.349 378.095C329.708 379.352 320.92 379.984 312.01 379.984C212.761 379.984 132.017 299.24 132.017 199.992ZM479.503 359.026H346.212C338.747 359.026 332.44 352.648 332.44 345.097C332.44 337.416 338.689 331.167 346.369 331.167H351.53C357.053 331.167 361.53 326.691 361.53 321.168C361.53 300.293 378.513 283.309 399.388 283.309C412.809 283.309 424.951 290.188 431.872 301.711C434.183 305.56 438.775 307.397 443.103 306.201C444.911 305.702 446.787 305.45 448.68 305.45C459.564 305.45 468.721 313.937 469.53 324.772C469.919 329.991 474.268 334.027 479.502 334.027C486.395 334.027 492.001 339.634 492.001 346.527C492.001 353.419 486.395 359.026 479.503 359.026Z" fill="black"/>
<path d="M205.947 103.93C211.47 103.93 215.947 99.4534 215.947 93.9304C215.947 88.4074 211.47 83.9304 205.947 83.9304H205.94C200.417 83.9304 195.944 88.4074 195.944 93.9304C195.944 99.4534 200.424 103.93 205.947 103.93Z" fill="black"/>
</g>
<defs>
<clipPath id="clip0_1341_296">
<rect width="512" height="512" fill="white"/>
</clipPath>
</defs>
</svg>
