<svg width="1196" height="798" viewBox="0 0 1196 798" fill="none" xmlns="http://www.w3.org/2000/svg">
<path d="M305.45 443.13C312.39 437.62 331.37 443.27 322.8 422.65C321.06 418.47 318.82 405.01 331.39 400.62C335.39 399.22 336.79 391.22 340.09 386.77C343.84 381.71 349.26 382.38 353.93 385.22C357.1 387.15 360.45 390.79 358.26 394.66C355.75 399.08 351.65 402.59 346.16 397.45C345.73 397.05 343.36 397.77 343.36 397.97C343.33 411.33 329.99 421.59 334.43 435.89C336.17 441.48 341.97 440.97 345.99 443.2C349.37 445.07 353.26 447.95 354.46 451.26C355.56 454.32 352.47 457.07 348.37 454.84C346.78 453.97 345.41 452.68 343.79 451.9C329.5 444.95 302.93 451.53 293.2 464.87C292.12 466.35 293.36 469.51 293.52 471.9C295 471.06 296.41 470.01 297.99 469.41C302.9 467.54 307.85 465.76 312.89 464.3C313.21 464.21 315.25 467.27 315.06 468.67C314.14 475.19 307.95 474.13 303.81 476.29C299.56 478.5 296.12 482.25 292.36 485.36C292.08 485.59 292.08 486.17 291.95 486.58C292.54 486.4 293.18 486.31 293.71 486.02C307.74 478.48 321.73 470.81 338.66 474.95C339.34 475.12 340.25 474.38 341.05 474.06C340.15 473.49 339.29 472.52 338.33 472.41C332.51 471.74 326.65 471.4 320.86 470.61C319.73 470.46 318.81 468.8 317.79 467.84C322.31 465.28 326.62 462.22 331.38 460.26C340.06 456.7 345.13 463.22 350.56 468.16C361.84 478.41 378.94 486.77 383.16 499.4C395.4 536.02 437.2 539.71 454.25 569.19C459.57 578.38 462.59 588.89 466.65 598.81C466.94 599.51 467.14 600.25 467.38 600.97C467.65 600.26 467.93 599.56 468.18 598.84C469.72 594.4 473.69 592.84 477.54 592.53C494.66 591.16 491.43 579.2 487.29 570.4C483.45 562.22 475.71 555.48 464.81 555.91C462.4 556 458.48 556.64 457.86 555.55C456.06 552.4 459.74 551.88 461.67 550.57C462.2 550.21 462.33 549.27 462.64 548.6C458.79 547.02 455.03 544.57 451.05 544.13C447.75 543.77 444.77 543.51 447.22 540.19C452.41 533.15 446.1 529.16 444.51 523.63C435 490.52 408.58 493.12 382.99 493.67C379.51 493.74 377.62 491.89 378.51 488.79C382.45 475.15 375.68 464.77 368.6 454.4C367.19 452.33 365.18 449.75 368.48 448.23C370.07 447.5 373.35 448.34 374.77 449.66C382.91 457.22 385.95 466.85 385.07 477.81C384.77 481.53 386.61 485.18 389.9 484.33C393.79 483.33 400.97 487.71 401.36 478.97C401.63 473.03 401.64 467.05 402.38 461.16C402.92 456.86 400.64 452.54 404.27 448.16C416.59 433.31 426.57 440.42 441.36 446.82C476.32 461.95 467.48 496.76 480.14 521.57C481.59 524.4 482.74 532.51 477.93 531.82C468.34 530.45 464.99 520.88 463.34 512.57C461.12 501.39 461.95 489.87 458.52 478.56C454.23 464.39 443.52 461.66 431.55 457.34C413.58 450.84 414.03 456.67 413.83 472.62C413.66 486.39 416.67 486.77 428.18 488.75C445.02 491.64 454.69 504.79 456.66 521.93C458.98 542.16 476.21 549.28 489.41 559.2C496.87 564.81 499.41 571.51 500.26 578.92C501 585.43 504.48 594.32 492.43 597.1C486.84 598.39 491.88 604.07 492.08 607.81C492.25 610.98 491.53 614.23 490.9 617.38C490.82 617.78 487.99 618.19 487.89 617.95C486.75 615.39 485.94 612.68 484.97 610.04C483.9 607.16 483.09 604.09 481.42 601.6C480.97 600.93 477.82 602.08 475.91 602.39C476.76 605.03 477.17 607.92 478.54 610.26C484.57 620.55 474.56 627.72 473.54 636.61C473.51 636.91 470.21 637.54 469.76 636.98C467.62 634.28 465.31 631.43 464.2 628.24C455.02 601.91 447.55 574.44 423.77 556.63C408.1 544.9 391.65 534.18 375.15 523.62C367.71 518.86 366.08 510.75 362.7 504.1C350.52 480.2 321.77 474.29 301.81 492.62C284.98 508.07 271.72 506.83 263.35 486.19C260.77 479.83 260.03 473.16 254.24 468.57C253.74 468.17 253.14 467.9 252.59 467.57C252.8 468.26 252.89 469.03 253.24 469.64C259.75 480.78 258.81 494.37 263.45 505.28C267.84 515.6 275.89 525.86 269.88 535.53C261.22 549.48 261.31 563.66 259.89 578.7C259.19 586.13 248.75 581.9 244.49 580C226.67 572.02 209.54 581.33 192.17 580.5C165.2 579.21 140.89 589.84 115.89 597.28C97.54 602.74 86.13 616.71 79.34 633.29C71.22 653.1 65.74 673.98 59.09 694.39C55.86 704.28 53.2 714.41 49.11 723.93C44.91 733.7 47.42 741.52 54.97 747.2C63.62 753.7 73.2 757.72 85.1 755.34C91.64 754.03 94 749.64 97.75 745.93C90.25 739.13 101.95 732.05 97.46 725.1C96.39 723.45 94.99 720.37 95.68 719.52C98.3 716.29 99.61 712.55 106.02 712.33C123.45 711.73 135.23 718.16 142.05 734.18C143.33 737.18 142.39 738.9 140.37 740.62C137.57 743.01 135.44 741.26 134.4 738.89C130.39 729.77 123.15 725.61 113.65 725.15C112.31 725.09 109.78 727.54 109.63 729.02C109.06 734.6 109.25 740.25 109.16 745.88C110.9 744.57 112.57 743.14 114.42 742.01C115.13 741.58 116.25 741.81 117.18 741.74C117.29 743.32 118 745.2 117.39 746.43C115.66 749.93 115.18 754.86 109.56 754.82C108.92 754.82 108.28 754.94 107.63 755C108.21 755.03 108.8 755.04 109.38 755.08C160.64 758.44 211.95 759.71 263.29 757.99C289.07 757.12 314.83 755.5 340.58 754.01C346.28 753.68 342.69 748.66 343.09 746.36C346.47 726.91 352.43 706.63 331.66 692.08C330.81 691.49 331.57 688.6 331.57 686.79C334.25 687.68 337.47 687.91 339.5 689.58C344.08 693.37 348.06 697.88 352.29 702.1C351.35 696.45 347.75 689.23 349.98 685.45C356.42 674.53 356.11 663.32 355.77 651.69C355.75 651.03 358.22 649.52 358.62 649.79C359.94 650.67 361.57 652.06 361.81 653.46C365.01 672.22 369.97 692.12 362.29 709.51C358.91 717.15 355.66 724.86 353.2 732.94C352.14 736.42 353.21 737.95 356.63 736.87C366.06 733.9 375.84 731.56 384.66 727.27C393.71 722.86 399.5 719.22 399.79 734.29C400.19 755.31 402.28 776.3 403.65 797.31C400 797.31 396.34 797.31 392.69 797.31C399.21 789.8 383.66 789.21 387.91 784.21C400.36 769.58 383.74 754.07 390.12 739.51C390.2 739.32 388.49 737.9 387.51 737.75C376.27 736.11 368.96 748.63 357.41 746.26C357.17 746.21 356.18 747.65 356.32 748.21C360.85 767.48 346.51 764.14 336.15 764.71C289.44 767.28 242.74 770.86 195.9 769.02C151.09 767.26 106.12 768.74 61.57 761.99C58.55 761.53 57.36 762.87 57.17 765.8C56.46 776.31 55.63 786.81 54.85 797.31C53.19 797.31 51.53 797.31 49.87 797.31C47.52 780.3 58.44 761.59 41.27 746.28C33.38 739.25 35.28 728.16 39.47 718.79C44.32 707.97 43.74 696.82 41.44 685.87C39.78 677.98 32.64 684.33 28.39 682.47C27.64 682.14 26.55 682.61 25.61 682.71C25.95 683.73 26.02 684.99 26.67 685.74C32.95 692.92 33.16 701.34 31.63 710.04C31.22 712.37 31.75 716.39 27.78 715.46C26.31 715.11 25.05 711.56 24.67 709.3C23.09 700.11 23.46 684.68 13.23 686.69C3.22001 688.66 3.88002 682.62 0.0200195 679.71C0.0200195 661.44 0.0200195 643.17 0.0200195 624.9C6.12002 632.24 6.28002 641.62 8.93002 650.17C9.98002 653.55 12.76 656.39 14.75 659.48C16.02 657.88 17.36 656.32 18.47 654.61C18.6 654.41 17.56 653.24 16.89 652.79C14.59 651.26 12.21 649.84 9.87003 648.38C10.65 647.45 11.26 646.05 12.25 645.68C15.9 644.34 19.36 643.94 22.97 646.67C26.12 649.06 30.35 652.49 33.48 651.94C41.61 650.51 35.92 644.7 35.81 640.58C35.78 639.6 37.05 637.92 38 637.67C46.59 635.46 50.97 631.69 42.79 624C30.68 612.62 16.6 604.78 0.0200195 601.96C0.0200195 597.97 0.0200195 593.99 0.0200195 590C27.8 596.57 52.6 607.05 62.25 637.43C62.54 638.34 63.17 639.14 63.65 639.99C64.27 638.93 65.08 637.93 65.48 636.79C73.3 614.61 86.47 595.15 107.71 586.04C124.96 578.65 145.21 578.28 164.14 574.8C164.6 574.72 165.07 574.69 165.53 574.64C165.29 573.91 165.16 573.11 164.78 572.45C159.57 563.38 151.51 555.97 149.6 544.93C149.01 541.53 146.3 542.2 144.1 544.58C133.94 555.53 121.43 563.56 112.8 576.85C102.78 592.27 83.8 579.27 69.62 584.31C68.4 584.74 67.01 584.66 65.69 584.82C67.12 585.09 68.54 585.42 69.98 585.63C72.1 585.94 75.39 584.95 74.75 588.66C74.55 589.79 71.72 591.2 70.06 591.24C55.28 591.58 40.45 595.68 25.77 591.07C23.81 590.46 22.47 587.9 20.84 586.24C22.31 585.09 23.93 582.78 25.23 582.95C69.78 588.66 94.6 554.71 125.49 533.12C132.45 528.25 143.34 523.53 134.37 512.46C128.71 505.47 118.82 510.74 111.14 507.89C107.09 506.38 102 506.18 100.75 501.75C99.56 497.56 101.9 493.74 105.87 490.81C107.32 489.74 107.14 485.93 106.98 483.42C106.88 481.8 105.47 480.27 104.64 478.7C103.14 480.26 101.9 482.29 100.1 483.29C90.63 488.52 100.21 504.34 86.92 507.09C77.93 508.95 68.57 509.31 59.81 511.84C45.7 515.91 45.49 529.08 43.41 540.47C42.61 544.83 43.36 549.39 39.32 552.71C38.72 553.2 39.37 555.23 39.45 556.55C40.33 556.03 41.21 555.51 42.1 555C45.33 553.14 48.56 551.27 51.8 549.41C52.18 550.75 53.28 552.88 52.82 553.29C49.41 556.36 48.63 562.5 42.13 562.22C40.78 562.16 38.73 564.58 38.04 566.28C37.31 568.09 37.81 570.4 37.77 572.49C38.97 571.56 40.06 570.15 41.41 569.82C43.5 569.32 46.85 568.66 47.71 569.69C49 571.25 49.48 574.59 48.67 576.46C47.81 578.47 45.21 580.66 43.08 581.02C34.75 582.42 24.83 575.32 18.12 585.84C17.97 586.08 15.21 585.38 15.05 584.76C14.09 581.03 14.59 577.35 17.97 574.99C25.08 570.01 25.51 561.41 27.78 554.53C33.73 536.56 32.06 515.08 50.91 503.52C57.8 499.29 66.72 498.36 74.74 496.01C77.56 495.18 82.67 497.4 82.4 492.45C82.13 487.54 77.91 484.8 72.86 484.81C67.33 484.82 61.79 485.35 56.26 485.6C53.22 485.74 49.61 485.84 48.91 482.21C48.16 478.28 51.52 476.53 54.76 476.27C64.36 475.48 74.01 473.32 83.15 479.52C85.38 481.03 89.03 486.65 92.64 481.98C96.74 476.69 105.88 473.55 97.34 462.8C91.16 455.01 90.58 442.77 87.45 432.54C86.94 430.88 86.11 429.31 85.43 427.7C83.74 428.89 81.76 429.82 80.44 431.33C78.48 433.58 76.98 436.78 73.38 435.45C69.66 434.07 70.75 430.95 71.21 427.85C74.3 407.06 54.32 389.87 34.89 396.35C33.77 396.72 31.13 396 31.07 395.53C30.43 390.8 29.22 385.82 30.12 381.3C30.85 377.62 30.12 370.81 35.55 371C41.05 371.19 38.68 377.69 39.6 381.34C40.28 384.05 40.71 386.79 43.78 386.18C63.88 382.2 73.31 392.88 78.03 410.47C78.91 413.75 79.77 414.49 81.93 410.72C95.17 387.64 114.91 379.56 141.46 381.81C169.32 384.18 175.34 405 183.52 425.03C184.34 427.04 185.55 430.74 186.2 430.66C189.01 430.31 192.78 429.64 194.21 427.65C201.43 417.57 208.54 407.32 214.63 396.54C217.8 390.93 208.79 384.43 214.44 377.66C215.66 376.2 215.03 372.27 218.14 372.74C219.88 373.01 222.63 375.96 222.52 377.54C221.56 391.85 226.22 405.04 228.92 418.73C230.98 429.21 232.46 435.71 244.67 435.14C250.69 434.86 256.78 436.68 262.87 436.95C265.41 437.06 268.19 435.9 270.45 434.61C270.9 434.35 269.36 430.88 268.97 428.84C265.98 413.19 280.15 403.1 281.94 388.98C283.29 389.21 285.4 389 285.84 389.76C286.97 391.72 288.41 394.42 287.86 396.27C286.38 401.31 283.86 406.04 281.92 410.97C280.79 413.84 278.87 417.73 282.93 419.07C285.69 419.99 291.73 419.06 292.16 417.67C294.66 409.59 302.58 402.49 297.64 392.79C295.64 388.86 296.97 385.43 300.31 383.33C304.46 380.72 307.53 384.85 307.8 387.26C308.56 393.95 315.76 401.26 306.5 407.7C304.92 408.8 304.96 413.16 305.44 415.81C305.64 416.91 308.87 417.93 310.82 418.14C313.7 418.45 315.44 419.54 314.77 422.42C313.81 426.57 312.41 430.76 306.67 429.67C299.11 428.24 291.59 426.58 284.02 425.23C280.83 424.66 277.85 426.07 278.16 429.52C280.02 450.28 265.06 446.27 253.13 446.86C249.74 447.03 246.36 447.38 242.98 447.64C245.94 450.42 248.44 454.5 251.95 455.75C262.39 459.47 267.28 470.46 278.25 474.14C282.41 475.53 272.11 484.65 277.39 490.87C277.84 491.4 277.72 492.41 277.86 493.2C278.13 492.36 278.4 491.51 278.68 490.67C280.71 484.76 274.87 473.36 288.99 475.88C288.28 474.81 287.33 473.83 286.91 472.65C283.22 462.29 289.62 456.15 296.47 450.29C299.07 448.06 301.87 446.07 304.58 443.96C304.88 443.7 305.16 443.41 305.45 443.13ZM180.01 570.13C190.42 568.71 198.11 568.73 205.06 566.48C219.28 561.86 236.42 567.6 247.79 550.24C251.29 544.89 234.25 533.15 252.6 536.13C252.61 535.64 252.8 535.06 252.61 534.66C248.33 525.61 254.7 515.69 249.67 506.21C247.03 501.22 248.99 494 247.43 488.17C246.18 483.52 242.77 479.43 240.15 475.2C240.07 475.07 237.91 475.9 237.04 476.65C232.23 480.78 238.32 483.1 238.77 486.38C239.19 489.47 245.67 492.23 241.25 494.9C236.67 497.67 236.43 491.09 234.29 488.63C229.4 483.02 224.46 487.32 219.34 487.34C212.82 487.37 210.41 492.61 205.11 493.23C197.25 494.16 188.78 488.77 181.38 495.85C178.93 498.19 172.99 501.1 172.09 500.22C155.22 483.76 160.11 518.34 147.4 510.57C147.61 513.3 147.65 516.07 148.08 518.77C150.15 531.76 150.16 531.17 159.67 530.77C161.39 530.7 167.65 528.17 168.46 534.21C155.87 534.38 171.11 545.5 163.22 547.52C169.14 555.51 175.09 563.52 180.01 570.13ZM133.81 391.04C129.53 391.5 121.75 391.96 114.12 393.26C101.07 395.49 82.93 419.26 89.8 424.71C101.07 433.64 100.9 448.04 108.22 458.52C113.89 466.64 115.9 484.53 127.48 479.5C137.92 474.96 137.55 483.26 141.83 484.91C144.92 486.1 146.19 491.99 148.27 495.78C146.86 495.99 145.16 495.78 144.14 496.52C143.26 497.16 143.15 498.86 142.71 500.1C147.81 500.54 151.51 498.77 155.86 495.53C159.76 492.63 164.26 480.54 172.08 492.21C172.62 493.02 175.04 492.58 176.58 492.71C175.6 491.89 174.2 491.27 173.69 490.22C169.44 481.45 159.36 490.72 154.06 483.6C151.52 480.18 144.68 479.44 143.07 475.96C140.97 471.43 139.76 466.13 143.28 459.89C148.73 450.25 163.61 445.1 158.62 429.94C158.2 428.68 161.03 425.95 162.86 424.62C163.33 424.28 166.83 426.4 167.14 427.79C169.7 439.47 174.25 452.01 157.3 457.45C156.61 457.67 156.68 461.41 157.13 463.34C157.28 463.98 159.73 464.09 161.12 464.45C161.08 453.85 178.13 457.69 176.67 446.15C176.28 443.06 172.9 439.76 173.54 437.23C178.28 418.78 156.79 391.05 133.81 391.04ZM220.68 419.82C219.8 417.02 219.05 414.65 218.3 412.27C217.34 412.71 215.81 412.91 215.5 413.63C213.39 418.59 218.8 428.45 206.7 426.79C206.25 440.02 190.01 437.75 186.12 447.67C185.9 448.23 184.59 448.29 183.98 448.8C183.28 449.39 182.8 450.24 182.22 450.98C186.94 449.93 191.65 448.88 196.37 447.82C190.96 439.14 200.07 438.36 202.96 439.16C223.46 444.9 216.33 427.78 220.68 419.82ZM35.11 671.34C38.29 671.34 40.44 671.28 42.59 671.36C44.83 671.44 46.46 670.75 45.37 668.29C43.62 664.33 41.47 660.55 39.5 656.69C39.71 658.76 40.05 660.82 40.11 662.89C40.19 665.65 43.49 669.69 38.55 670.7C33.63 671.71 34.28 666.42 32.59 663.73C30.69 660.7 28.39 657.91 26.14 655.12C25.99 654.94 24.77 655.63 24.04 655.92C29.69 659.8 20.79 675.1 35.11 671.34ZM210.89 459.72C208.94 460.79 206.35 462.22 203.75 463.64C205.98 464.11 208.18 464.79 210.43 465.01C215.35 465.49 220.31 466.13 225.22 465.93C227.88 465.82 230.48 464.12 233.11 463.13C232.95 463.02 232.79 462.84 232.62 462.81C225.68 461.82 218.74 460.84 210.89 459.72ZM91.92 574.87C103.98 576.94 104 567.71 107.86 562.54C107.57 562.48 107.17 562.27 107.01 562.39C101.66 566.31 96.33 570.27 91 574.22C91.89 574.85 92.78 575.49 91.92 574.87ZM8.98001 660.91C8.42001 662.37 7.84 663.08 7.97 663.63C9.37 669.47 10.57 675.66 19.14 672.35C20.05 672 20.98 671.72 21.9 671.4C17.81 668.09 13.73 664.76 8.98001 660.91Z" fill="#CCCCCC" fill-opacity="0.6"/>
<path d="M826.19 797.29C830.79 788.42 835.85 779.76 839.89 770.64C845.47 758.05 849.26 745.7 827.37 747.82C826.05 747.95 824.71 747.86 823.39 747.8C808.21 747.1 799.53 747.23 807.96 725.14C819.23 695.6 829.8 665.53 826.15 630.49C823.96 609.49 816.04 585.63 825.57 563.28C827.27 559.29 825.41 554.83 821.13 552.74C819.29 551.84 816.17 551.41 814.67 552.37C810.68 554.95 813.12 558.94 813.71 562.36C814.52 567.08 816.09 571.73 816.31 576.46C816.46 579.77 817.43 585.11 811.69 585.06C805.81 585.01 807.17 584.88 804.34 594.43C800.81 606.33 794.77 617.44 795.55 630.53C795.58 630.97 784.16 633.85 779.13 632.26C775.53 631.12 771.65 625.37 774.08 619.08C781.06 600.98 783.88 581.41 782.82 562.81C782.15 551.17 767.19 559.3 759.23 559.04C718.33 557.7 677.38 557.95 636.45 557.61C632.14 557.57 624.96 559.74 625.35 553.6C625.72 547.79 633.66 550.29 637.65 550.26C680.02 550.03 722.39 550.53 764.76 550.73C790.37 550.85 797.95 560.48 792.16 585.43C790.77 591.4 790.14 597.55 789.16 603.62C791.08 597.74 793.24 591.93 794.86 585.97C797.62 575.86 801.44 566.16 801.59 555.18C801.67 549.59 802.62 539.92 814.6 543.11C824.14 545.65 829.62 535.88 835.53 531.15C840.66 527.05 829.8 524.56 827.89 520.02C826.79 517.39 825.34 514.91 824.06 512.36C826.33 511.51 828.55 510.49 830.88 509.85C834.96 508.72 837.3 506.32 836.7 501.97C836 496.96 831.67 498.06 829.31 499.07C822.68 501.93 818.29 498.6 814.55 494.34C810 489.16 807.01 483.77 810.68 475.99C815.47 465.84 817.31 454.14 822.96 444.61C830.99 431.07 844.3 426.8 860.31 426.3C869.78 426.01 879.07 419.63 888.39 415.85C888.62 415.76 888.49 413.43 888.05 413.23C874.44 407.16 867.05 398.15 870.39 382.01C871.8 375.18 867.86 369.19 860.65 366.59C857.71 365.53 855.12 365.91 853.46 369.05C851.88 372.03 853.39 373.68 855.77 375.1C859.06 377.07 860.9 380.33 858.57 383.36C856.05 386.64 853.45 383.35 850.98 381.8C844.1 377.48 838.45 372.1 839.74 363.35C840.43 358.67 845.27 357.78 849.63 357.65C861.95 357.3 874.35 356.79 879.41 371.75C879.78 372.84 880.09 373.97 880.22 375.1C880.75 380 881.2 384.91 881.68 389.81C883.84 386.05 885.13 381.08 888.33 378.74C898.63 371.23 905.81 375.5 910.13 386.38C911.8 390.57 911.76 394.05 917.66 388.36C933.09 373.47 951.41 367.39 973.03 374.57C979.58 376.75 986.93 376.64 993.94 377.25C998.37 377.64 999.19 380.82 999.86 384.06C1000.3 386.2 1000.08 388.48 1000.16 390.7C997.63 390 994.98 389.57 992.61 388.53C987.77 386.41 983.27 383.17 978.25 381.91C975.12 381.12 970.06 381.97 968.08 384.12C965.48 386.95 970.91 387.96 971.87 390.07C976.51 400.23 981.04 410.49 984.62 421.05C985.67 424.13 979.95 424.62 979.2 423.51C974.96 417.21 955.49 425.78 962.98 406.28C964.08 403.41 962 389.45 958.29 383.75C954.44 377.82 944.67 384.72 938.6 387.21C919.77 394.9 922.13 411.36 928.29 425.24C935.64 441.79 935.98 458.03 933.97 475.12C933.69 477.51 934.61 480.04 934.98 482.51C935.78 480.82 936.73 479.18 937.34 477.43C938.79 473.23 941.5 469.1 945.72 469.2C962.65 469.6 976.38 460.66 988.2 451.36C995.88 445.32 999.93 432.64 994.09 420.88C992.91 418.51 992.56 415.74 991.82 413.15C993.02 413.13 995.2 412.85 995.28 413.14C997.29 420.51 1011.17 401.14 1007.82 418.36C1004.89 433.43 1002.89 447.63 1014.11 460.37C1014.97 461.34 1013.95 463.96 1013.8 465.81C1011.68 465.62 1008.84 466.22 1007.58 465.08C1003.88 461.73 1000.29 461.69 995.67 462.73C990.05 464 987.72 465.43 984.49 471.82C979.29 482.09 967.46 487.55 954.47 480.2C952.75 479.22 950.05 479.96 947.81 479.91C949.03 481.35 950.2 482.83 951.48 484.21C955.52 488.55 961.3 491.29 954.19 499.01C930.25 525.02 927.99 558.1 926.23 591.12C926 595.41 925.69 599.69 925.32 603.97C924.44 614.01 927.29 620.46 939.1 619.42C942.11 619.15 947 619.03 946.62 623.57C946.28 627.57 941.62 626.89 938.43 627.17C934.21 627.55 929.99 627.86 925.76 628.2C928.13 635.03 929.77 642.27 933.3 648.44C934.46 650.47 941.56 651.47 944.14 649.92C955.16 643.31 949.57 631.64 950.75 622.24C953.99 596.41 949.16 568.1 978.57 552.14C985.42 548.42 989.31 539.41 994.92 533.16C996.59 531.29 999.5 530.53 1001.84 529.26C1001.64 531.99 1002.4 535.37 1001.07 537.33C994.45 547.09 989.24 558.15 978.27 564.25C977.94 564.44 977.75 564.89 977.5 565.22C982.36 566.44 987.85 569.71 991.94 568.44C999.84 565.98 1007.31 566.62 1014.23 569.21C1026.17 573.67 1034.53 564.43 1044.78 562.84C1045.11 562.79 1045.32 562.04 1045.59 561.61C1043.35 561.27 1041.09 560.58 1038.86 560.65C1028.99 560.95 1019.09 561.66 1009.95 556.73C1007 555.14 1004.8 552.57 1007.01 549.56C1009.14 546.66 1011.52 548.71 1014.5 550C1018.81 551.87 1024.23 551.37 1029.19 551.54C1042.77 552.01 1056.4 553.1 1069.91 552.34C1077.62 551.91 1088.03 551.44 1083.45 537.57C1082.45 534.53 1085.11 527.72 1087.79 526.55C1093.23 524.18 1091.32 530.73 1091.96 532.98C1095.76 546.55 1106.25 541.47 1113.87 540.19C1128.31 537.77 1142.38 533.19 1156.71 529.97C1161.23 528.96 1164.88 527.28 1163.85 522.52C1162.08 514.31 1175.36 514.39 1172.5 508.84C1167.07 498.27 1181.75 493.62 1178.02 484.25C1177.74 483.55 1180.59 481.6 1181.99 480.23C1182.44 481.84 1182.95 483.44 1183.32 485.07C1183.55 486.09 1183.55 487.16 1183.65 488.21C1185.42 487.59 1187.34 487.22 1188.92 486.28C1191.38 484.83 1193.61 482.99 1195.94 481.31C1195.94 489.95 1195.94 498.58 1195.94 507.22C1179.35 509.72 1177.04 525.02 1169.95 536.09C1166.35 541.71 1163.96 551.69 1154.59 541.32C1152.86 539.41 1150.62 540.62 1150.14 543.02C1149.09 548.21 1144.98 549.9 1140.87 550.37C1124.16 552.28 1106.19 550.43 1090.96 556.09C1070.63 563.63 1048.98 569.3 1030.9 582.39C1030.65 582.09 1030.39 581.79 1030.14 581.49C1013.24 580.43 996.32 579.57 979.44 578.24C972.01 577.65 966.11 574.66 964.64 587.35C959.42 632.23 964.56 677.76 955.45 722.36C953.83 730.28 951.47 742.05 955.49 746.28C963.35 754.53 1004.38 744.28 1012.14 734.42C1017.9 727.1 1026.28 722.85 1034.53 724.92C1041.83 726.75 1045.93 734.52 1045.88 743.02C1045.86 746.67 1044.34 751.6 1046.14 753.73C1052.59 761.38 1046.83 764.71 1041.74 767.4C1035.12 770.9 1038.21 763.14 1035.87 761.27C1032.56 758.63 1030.92 758.81 1029.46 762.95C1029.05 764.11 1026.8 764.63 1025.4 765.44C1024.96 764.54 1023.89 763.22 1024.17 762.81C1028.7 756.09 1023.84 754.25 1018.99 754.38C1014.2 754.51 1011.42 758.86 1012.11 763.38C1013.84 774.73 1016.36 785.96 1018.56 797.23C1016.57 797.23 1014.57 797.23 1012.58 797.23C1009.49 786.13 1006.42 775.02 1003.28 763.92C1003 762.94 1002.33 762.07 1001.84 761.16C1001.44 761.79 1000.58 762.55 1000.71 763.04C1002.37 769.38 995.8 777.41 1004.78 782.39C1005.94 783.04 1005.88 785.9 1006.38 787.73C999.68 788.73 1003.41 793.87 1002.62 797.22C997.97 797.22 993.32 797.22 988.67 797.22C994.64 786.16 990.85 773.85 993.07 762.31C993.18 761.71 992.45 760.95 992.11 760.27C986.71 764.43 979.45 767.5 976.28 772.95C967.44 788.16 958.46 769.94 949.31 773.82C946.6 774.97 944.8 767.44 946.01 763.06C948.83 752.87 944.83 743.56 942.44 734.07C942.06 732.58 939.76 731.58 938.34 730.35C938.08 731.52 937.55 732.71 937.59 733.87C938.3 754.99 939.07 776.1 939.83 797.22C935.18 797.22 930.53 797.22 925.88 797.22C924.44 774.85 922.39 752.49 921.87 730.1C921.69 722.1 918.85 706.38 936.77 718.57C947.53 725.89 950.71 719.87 950.53 709.08C950.34 697.92 950.77 686.73 951.54 675.6C952.03 668.45 949.53 668.06 943.63 670.08C939.26 671.58 932.43 677.79 930.55 672.73C927.77 665.25 938.22 667.21 942.07 663.82C943.38 662.66 945.86 662.91 947.75 662.3C949.08 661.87 950.29 661.09 951.55 660.47C951.21 659.8 950.98 658.64 950.52 658.54C949.1 658.24 947.44 657.92 946.13 658.37C935.14 662.13 926.39 663.62 924.26 647.49C922.94 637.46 915.77 628.04 915.19 618.11C914.25 602.23 915.37 585.96 917.87 570.22C921.28 548.75 915.83 524.3 938.97 508.53C943.69 505.32 932.02 499.42 930.08 493.24C929.08 490.06 926.84 493.3 925.04 494.06C904.85 502.55 897.28 519.13 895.25 539.53C895.08 541.19 892.72 542.64 891.38 544.18C890.47 542.24 888.47 540.06 888.83 538.41C891.59 525.95 896.68 513.69 894.99 500.77C893.44 488.93 900.77 487.53 909.04 484.03C914.22 481.84 922.24 483.94 922.6 482.36C925.12 471.36 931.34 455.17 926.36 449.62C911.74 433.3 914.18 410.59 901.1 394.73C898.01 390.98 902.84 381.42 896.02 382.85C889.55 384.21 894.32 392.6 894.57 397.74C894.83 403.04 896.34 408.23 900.67 412.37C905.14 416.64 904.91 420.92 898.37 423.24C888.28 426.82 878.03 429.96 868.06 433.86C860.22 436.93 852.95 442.78 851.92 450.75C848.3 478.8 846.28 507.05 843.42 535.2C842.99 539.39 844.11 546.33 835.93 543.54C833.05 542.56 831 543.24 831.24 545.54C831.87 551.71 833.41 557.79 834.59 563.9C834.72 561.64 834.44 559.26 835.08 557.15C835.69 555.13 834.97 551.28 838.87 552.02C842.46 552.69 841.03 555.55 840.88 558.03C840.52 563.82 840.26 569.67 840.79 575.42C840.95 577.13 843.87 578.58 845.53 580.15C846.29 578.9 847.16 577.71 847.81 576.4C855.29 561.43 853.24 545.24 853.89 529.38C853.96 527.54 855.51 524.44 856.77 524.22C860.22 523.62 859.99 526.87 860.51 529.29C864.8 549.54 858.75 569.26 857.39 589.21C856.99 595.05 859.32 598.89 864.09 601.29C869.4 603.95 872.51 607.98 872.03 613.78C871.88 615.61 869.02 618.67 867.4 618.67C860.95 618.67 862.7 611.66 859.77 608.64C857.44 606.24 853.96 604.88 850.84 603.37C850.19 603.06 848.21 603.93 848.03 604.57C847.74 605.63 848.02 607.49 848.78 608.09C855.98 613.72 854.46 622.31 856.67 629.69C860.59 642.81 851.43 653.54 851.08 665.48C850.36 689.97 851.23 714.51 851.46 739.03C851.49 742.27 850.64 745.86 851.75 748.68C859.38 768.03 854.58 783.93 839.19 797.2C834.83 797.29 830.51 797.29 826.19 797.29ZM849.36 634.16C848.6 629.68 847.81 625.04 847.02 620.4C846.06 624.5 845.38 628.71 844.02 632.68C843.13 635.28 841.29 637.58 839.7 639.9C839.59 640.06 837.32 639.23 837.34 638.94C838.23 624.61 832.48 609.34 843.26 596.36C844.41 594.98 845.97 592.16 845.44 591.46C842.01 586.97 838.05 582.89 834.26 578.67C833.26 580.12 831.84 581.43 831.33 583.03C828.16 593.07 838.71 601.83 834.33 611.92C826.25 630.52 841.15 648.11 835.37 668.36C832.18 679.56 834.21 692.96 825.54 703.51C823.39 706.12 820.41 708.65 819.66 711.67C818.03 718.21 824.12 712.2 825.38 714.63C831.07 708.43 840.64 705.13 840.73 694.74C840.8 686.27 842.01 677.41 840.01 669.4C836.57 655.66 849.11 646.83 849.36 634.16ZM831.88 482.69C831.67 487.53 832.54 488.6 835.16 489.07C838.8 489.73 837.9 486.66 838.13 485.21C840.71 468.82 836.46 450.94 848.92 436.71C848.95 436.68 847.86 435.29 847.53 435.38C838.83 437.89 830.61 440.77 827.8 451.05C825.07 461.02 821.61 470.79 818.52 480.67C817.81 482.95 814.57 485.77 818.14 487.51C821.6 489.21 825.15 488.34 826.88 483.85C827.42 482.44 829.26 481.54 830.51 480.4C831.17 481.5 831.82 482.58 831.88 482.69ZM828.19 737.72C833.57 734.61 844.17 741.74 844.42 729.93C844.58 722.21 841.54 714.41 839.94 706.65C834.03 717.14 820.29 722.04 818.13 734.51C817.19 739.91 824.84 735.2 828.19 737.72ZM957.68 758.11C958.05 757.71 956.42 758.65 956.32 759.73C956.05 762.53 955.31 765.46 958.84 767.52C966.52 772 968.06 768.05 970.26 761.4C971.04 759.04 977.71 758.62 981.69 757.32C976.61 757.16 971.53 756.89 966.45 756.9C964.2 756.9 961.96 757.49 957.68 758.11Z" fill="#CCCCCC" fill-opacity="0.6"/>
<path d="M1043.45 797.29C1040.69 786.14 1045.17 776.29 1049.96 766.98C1059 749.41 1051.53 730.23 1055.78 712.92C1060.31 694.49 1042.88 685.75 1042.38 670.22C1042.03 659.28 1037.06 648.29 1037.87 637.59C1038.36 631.04 1044.79 623.58 1050.57 619.21C1055.02 615.84 1060.27 614.16 1062.63 608.28C1063.39 606.38 1066.27 605.34 1068.18 603.91C1069.73 606.29 1071.74 608.51 1072.58 611.12C1072.89 612.09 1070.62 614.15 1069.22 615.35C1066.63 617.57 1063.82 619.52 1061.1 621.58C1063.79 620.41 1066.38 618.72 1069.19 618.18C1076.53 616.79 1087.54 607.91 1090.1 615.04C1092.94 622.95 1079 619.33 1073.51 623.3C1066.85 628.12 1059.61 632.15 1052.92 636.93C1051.59 637.88 1051.6 640.72 1050.99 642.68C1052.36 641.82 1053.82 641.06 1055.09 640.07C1063.3 633.64 1072.41 629.11 1082.7 627.3C1084.12 627.05 1085.79 628.25 1087.34 628.79C1086.37 630.26 1085.75 632.45 1084.39 633.1C1076.99 636.64 1069.16 639.33 1061.96 643.2C1052.34 648.37 1048.04 673.78 1054.94 682.25C1055.15 682.5 1056.33 682.37 1056.7 682.03C1089.38 652.3 1122.79 623.33 1151.47 589.52C1160.96 578.33 1155.25 561.15 1164.91 550.92C1177.2 537.91 1179.8 518.2 1195.93 508.29C1195.93 510.62 1195.93 512.94 1195.93 515.27C1185.87 534.69 1176.87 554.52 1171.49 575.86C1169.1 585.32 1162.78 594.95 1163.84 603.84C1165.17 615.1 1162.5 625.67 1159.64 634.97C1156.16 646.3 1146.16 655.61 1139.03 665.83C1138.53 666.55 1138.38 667.52 1138.06 668.37C1139.07 668.01 1140.08 667.66 1141.09 667.29C1163.69 659.03 1160.87 634.23 1172.45 618.77C1174.32 616.27 1168.2 608.28 1176.13 609.94C1183.06 611.39 1177.47 617.94 1177.25 622.2C1177.13 624.45 1175.74 626.62 1175.54 628.89C1175.33 631.25 1175.85 633.67 1176.05 636.06C1177.89 634.87 1180.26 634.05 1181.43 632.39C1182.99 630.16 1185.24 626.07 1184.36 624.9C1181.32 620.85 1182.62 616.96 1185.35 615.13C1188.39 613.09 1193.52 610.16 1195.93 616.94C1195.93 618.6 1195.93 620.26 1195.93 621.92C1192.07 629.48 1192.69 640.91 1179.72 640.68C1179.07 640.67 1177.76 642.1 1177.86 642.68C1178.14 644.41 1178.97 646.06 1179.59 647.74C1180.61 647.28 1181.61 646.77 1182.66 646.37C1184.31 645.75 1186 645.21 1187.67 644.64C1188.22 646.39 1188.24 648.76 1189.42 649.77C1193.8 653.53 1178.73 666.28 1195.94 663.77C1195.94 664.77 1195.94 665.76 1195.94 666.76C1190.92 678.03 1176.86 671.76 1170.1 679.86C1170.01 679.97 1167.03 678.04 1165.79 676.7C1165.13 675.98 1165.31 674.49 1165.11 673.34C1162.41 674.57 1162.17 677.42 1160.88 679.36C1157.28 684.77 1165 691.52 1160.77 693.12C1156.46 694.74 1155.92 696.17 1155.24 699.7C1154.82 701.9 1153.16 705.37 1151.7 705.56C1147.58 706.12 1148.34 701.92 1147.87 699.51C1146.92 694.55 1146.5 689.48 1145.84 684.46C1145.76 683.83 1145.5 683.22 1145.32 682.6C1144.98 682.84 1144.43 683.02 1144.34 683.33C1142.6 689.9 1134.04 691.5 1133.32 699.16C1132.84 704.28 1131.83 710.08 1128.96 714.07C1125.88 718.36 1131.59 720.41 1129.77 723.72C1129.63 723.97 1131.7 726.13 1132.29 725.95C1134.72 725.21 1137.61 724.48 1139.18 722.71C1145.65 715.43 1158.92 717.12 1160.31 719.53C1168.57 733.82 1185.56 732.87 1195.92 742.52C1195.92 757.14 1195.92 771.75 1195.92 786.37C1194.28 784.9 1191.1 783.26 1191.23 781.98C1193.28 762.84 1176.28 770.77 1168.44 765.88C1167.22 765.12 1160.51 769.83 1164.35 764.36C1174.69 749.65 1169.49 740.52 1157.25 731.26C1153.48 728.41 1152.03 728.29 1147.77 730.39C1142.65 732.92 1146.96 750.55 1133.67 739.43C1133.65 739.41 1132.59 740.26 1132.45 740.81C1131.18 745.85 1129.89 750.9 1128.92 756.01C1128.74 756.96 1129.99 758.18 1130.58 759.28C1131 758.05 1131.33 756.78 1131.87 755.61C1133.36 752.36 1133.77 746.42 1138.29 747.88C1143.01 749.41 1139.46 754.31 1138.9 757.84C1137.46 766.88 1135.76 775.92 1135.09 785.02C1134.66 790.85 1136.99 793.46 1144.44 793.68C1149.68 793.84 1155.68 781.27 1160.39 793.75C1159.61 794.94 1158.83 796.13 1158.05 797.32C1146.42 797.32 1134.8 797.32 1123.17 797.32C1122.05 791.76 1121.25 786.11 1119.72 780.65C1118.01 774.52 1115.66 768.58 1113.58 762.55C1113.08 765.89 1112.75 769.28 1112.02 772.57C1111.55 774.68 1110.48 776.66 1109.68 778.7C1106.85 777.4 1103.6 776.61 1101.29 774.69C1098.3 772.21 1103.41 770.74 1102.99 769.39C1100.69 762.1 1116.76 762.21 1109.28 753.05C1105.84 748.83 1115.48 737.66 1101.74 738.61C1101.32 738.64 1100.57 737.8 1100.42 737.25C1099.24 732.97 1106.29 728.66 1097.82 723.41C1093.17 720.53 1097.02 709.69 1105.45 706.06C1106.47 705.62 1106.83 703.63 1107.49 702.36C1106.41 702.12 1105.27 701.53 1104.26 701.7C1102.51 702 1100.96 705.91 1099.22 702.53C1098.55 701.23 1100.85 698.67 1101.04 696.61C1101.73 689.02 1123.34 705.72 1113.86 685.6C1113.42 684.67 1121.33 679.62 1125.55 676.79C1126.71 676.01 1129.04 675.61 1129.99 676.26C1130.99 676.94 1131.16 679.08 1131.34 680.62C1131.5 681.95 1131.18 683.34 1131.07 684.71C1132.11 681.32 1133.2 677.95 1134.14 674.54C1134.24 674.17 1133.41 673.09 1133.17 673.14C1118.86 675.96 1106.39 681.95 1099.79 695.75C1093.59 708.71 1093.2 723.37 1097.27 736.18C1100.65 746.82 1108.29 755.32 1098.19 766.17C1094.43 770.21 1095.84 775.82 1096.98 781.3C1098.57 788.99 1106.48 791.04 1109.24 797.34C1104.59 797.34 1099.94 797.34 1095.29 797.34C1090.89 792.36 1087.67 786.97 1085.48 780.44C1081.61 768.88 1094.13 760 1090.82 750.31C1082.54 726.07 1080.23 703.16 1096.21 681.12C1096.67 680.49 1094.64 676.74 1093.95 676.79C1084.51 677.53 1071.75 675.25 1076.9 692.01C1078.4 696.89 1083.38 699.93 1082.9 706.38C1080.67 736.68 1079.13 767.02 1077.35 797.35C1074.03 797.35 1070.71 797.35 1067.38 797.35C1068.99 766.7 1070.6 736.06 1072.19 705.41C1072.28 703.75 1072.2 702.09 1072.19 700.43C1070.72 702.29 1069.03 704.03 1067.81 706.05C1060.41 718.36 1068.74 730.93 1067.6 743.6C1066.6 754.68 1059.33 765.72 1065.4 777.33C1065.79 778.07 1065.02 780.02 1064.21 780.6C1063.47 781.14 1061.85 780.84 1060.79 780.46C1059.47 779.99 1058.32 779.06 1057.1 778.32C1056.34 780.07 1054.99 781.8 1054.93 783.57C1054.79 788.15 1055.22 792.75 1055.42 797.35C1051.42 797.29 1047.44 797.29 1043.45 797.29ZM1107.7 670.33C1126.93 669.52 1145.57 651.25 1146.67 632.11C1146.71 631.5 1146.51 630.88 1146.42 630.26C1145.91 630.62 1145.34 630.91 1144.9 631.34C1132.18 643.87 1119.47 656.4 1106.77 668.95C1106.38 669.33 1106.07 669.79 1105.73 670.21C1106.38 670.26 1107.04 670.32 1107.7 670.33ZM1139.98 622.12C1156.08 618.47 1152.02 608 1155.49 602.15C1155.55 602.05 1154.92 601.53 1154.62 601.21C1154.18 601.66 1153.71 602.09 1153.29 602.57C1145.36 611.57 1137.42 620.56 1129.52 629.59C1128.48 630.78 1127.63 632.15 1126.69 633.44C1128.06 632.51 1129.56 631.72 1130.78 630.62C1135.2 626.63 1139.53 622.54 1139.98 622.12ZM1121.41 737.06C1115.99 736.45 1115.75 741.15 1115.71 743.01C1115.59 748.05 1116.87 753.15 1117.88 758.18C1118.02 758.89 1119.72 759.3 1120.7 759.84C1120.26 756.95 1119.35 754.03 1119.55 751.19C1119.69 749.19 1121.45 747.34 1122.26 745.33C1123.25 742.87 1124.01 740.32 1124.87 737.82C1123.46 737.5 1122.05 737.2 1121.41 737.06ZM1177.29 668.35C1178.4 664.25 1179.5 660.19 1180.61 656.14C1178.22 655.51 1175.85 654.79 1173.44 654.28C1172.02 653.98 1169.58 653.45 1169.26 653.99C1168.47 655.34 1168.29 657.31 1168.58 658.9C1168.71 659.64 1170.53 660.05 1171.57 660.64C1173.03 661.46 1174.48 662.31 1175.94 663.14C1175.43 663.86 1175.06 664.77 1174.38 665.27C1173.46 665.95 1172.32 666.33 1171.27 666.83C1172.54 667.15 1173.83 667.48 1177.29 668.35Z" fill="#CCCCCC" fill-opacity="0.6"/>
<path d="M405.62 797.29C402.63 785.49 415.53 785.46 419.65 778.69C424.56 770.6 431.61 766.26 419.44 756.18C413.16 750.98 415.85 735.11 414.12 724.12C413.84 722.36 411.95 720.08 410.28 719.48C407.53 718.48 405.04 724.22 401.61 720.37C404.23 718.5 407.36 717.06 409.37 714.68C418.53 703.84 403.76 698.65 403.19 689.98C403.04 687.75 401.91 685.59 401.22 683.39C403.66 683.66 406.09 683.93 408.53 684.19C417 685.08 423.75 680.03 429.62 675.73C436.17 670.93 425.79 666.51 426.18 663.6C429.98 635.37 405.71 645.69 393.83 639.31C392.83 638.77 391.4 639.02 390.17 638.9C390.9 639.75 391.69 640.56 392.34 641.47C393.97 643.75 399.98 645.18 395.54 648.77C391.12 652.33 385.72 649.92 382.27 646.02C379.83 643.26 376.66 638.54 381.01 635.6C396.02 625.49 410.98 624.62 424.91 638.07C425.9 639.03 427.24 639.63 428.42 640.4C428.4 636.38 428.45 632.35 428.28 628.33C428.26 627.73 427.16 626.63 426.67 626.68C419.01 627.57 413.92 623.7 410.28 617.63C407.64 613.23 406.76 617.76 404.94 618.15C394.6 620.38 384.21 622.48 373.72 623.74C372.02 623.95 367.86 619.4 368.19 617.69C368.91 613.93 372.8 616.82 375.16 616.3C385.03 614.12 395.24 612.38 404.42 608.4C415.04 603.79 418.36 612.61 424.31 616.81C425.33 617.53 425.97 618.81 426.78 619.84C426.32 618.45 425.83 617.07 425.42 615.66C423.45 608.89 415.02 599.19 422.6 595.95C430.32 592.66 431.64 605.62 435.28 611.66C444.08 626.3 435.36 640.94 434.59 655.61C434.48 657.7 435.14 659.83 435.44 661.94C437.13 661.18 438.77 660.27 440.52 659.71C442.28 659.14 444.16 658.91 445.99 658.54C445.52 660.25 445.51 662.31 444.51 663.6C441.49 667.48 441.36 667.31 445.18 668.66C445.8 668.88 446.71 669.96 446.58 670.29C445.97 671.91 445.41 673.87 444.15 674.85C441.03 677.28 436.99 678.71 434.37 681.53C431.71 684.38 430.32 688.4 428.37 691.9C432.55 693.71 436.58 696.15 440.94 697.14C444.78 698.01 448.58 698.31 450.35 702.29C450.74 703.17 449.73 705.75 449.07 705.86C443.53 706.81 437.92 707.38 432.33 708.06C433.36 706.18 434.53 704.36 435.33 702.39C435.57 701.81 434.81 700.11 434.46 700.1C429.32 699.9 425.54 701.92 423.93 707.11C423.23 709.37 421.3 712.11 425.29 713.02C428.25 713.69 432.48 712.7 432.46 717.14C432.44 720.67 428.82 720.77 425.96 720.96C425.63 720.98 425.32 721.38 425 721.6C428.87 722.73 432.7 724.02 436.61 724.95C441.07 726.01 444.63 718.49 449.29 723.37C449.87 723.98 448.11 727.61 446.7 729.19C441.83 734.69 435.96 736.57 428.87 733.28C427.39 732.59 425.5 732.8 423.8 732.6C424.03 733.53 423.95 734.9 424.54 735.32C426.13 736.44 428.09 738.06 429.74 737.89C458.12 734.92 460.87 727.92 458.21 699.96C456.52 682.29 459.63 663.18 466.08 645.62C466.4 644.74 467.98 644.32 468.97 643.69C469.89 645.45 471.88 647.43 471.57 648.94C466.44 674.44 466.9 700.26 466.26 726.06C466.09 732.81 464.74 738.48 473.25 740.65C474.61 741 475.37 743.74 476.41 745.37C474.83 745.57 472.66 746.54 471.75 745.85C459.23 736.35 446.44 742.13 433.69 744.86C433.24 744.96 432.83 745.18 432.4 745.35C433.25 745.6 434.11 746.09 434.95 746.05C439.4 745.86 444.08 744.96 447.08 749.45C447.58 750.2 446.96 752.79 446.63 752.83C441.83 753.46 437 753.87 432.16 754.15C430.93 754.22 429.65 753.62 428.4 753.32C429.1 754.33 429.68 755.46 430.52 756.33C433.88 759.81 436.31 764.62 433.7 768.39C426.83 778.33 442.33 787.83 433.52 797.29C431.19 797.29 428.87 797.29 426.54 797.29C421.22 775.79 415.91 794.08 410.59 797.29C408.94 797.29 407.28 797.29 405.62 797.29Z" fill="#CCCCCC" fill-opacity="0.6"/>
<path d="M900.93 797.29C902.14 775.65 901.76 753.77 905.05 732.45C907.91 713.95 891.08 716 884.23 707.9C877.12 699.49 861.71 704.21 857.88 691C857.41 689.37 857.93 687.46 857.99 685.69C859.68 686.41 861.6 686.84 863.01 687.93C865.07 689.51 866.47 692.38 868.7 693.19C871.19 694.1 874.3 693.32 877.14 693.28C875.33 692 873.31 690.93 871.76 689.39C868.32 685.98 865.07 682.39 861.93 678.7C861.66 678.39 863.24 675.97 863.3 676C868.41 678.29 875.73 679.38 878.08 683.39C886.44 697.66 899.62 704.33 912.96 712.55C919.78 716.75 914.96 731.04 914.31 740.83C913.07 759.65 912.02 778.49 910.9 797.32C907.58 797.29 904.26 797.29 900.93 797.29Z" fill="#CCCCCC" fill-opacity="0.6"/>
<path d="M4.98002 797.29C1.60002 788.25 8.98002 788.67 14.01 786.89C15.32 786.43 16.49 785.39 17.5 784.4C17.75 784.15 17.15 783.03 16.94 782.32C16 783.27 15.19 784.43 14.09 785.1C13.25 785.62 11.13 785.73 11.12 785.67C10.43 782.58 3.60003 780.55 7.71003 777.35C13.03 773.21 19.66 767.79 26.08 777.21C30.87 784.23 41.73 786.52 41.85 797.29C29.56 797.29 17.27 797.29 4.98002 797.29Z" fill="#CCCCCC" fill-opacity="0.6"/>
<path d="M0 471.4C4.1 468.95 8.26 468.5 12.47 471.07C22.85 477.4 31.78 471.19 41.16 468.03C43.31 467.3 46.04 468.26 48.5 468.45C48.08 471.58 48.34 475.04 47.05 477.76C45.63 480.76 42.88 479.57 40.22 478.24C38.02 477.14 35.27 477.13 32.76 476.63C33.19 478.51 33.81 480.37 34.02 482.28C34.27 484.57 34.03 487.07 30.72 486.06C20.45 482.94 10.23 479.63 0 476.39C0 474.72 0 473.06 0 471.4Z" fill="#CCCCCC" fill-opacity="0.6"/>
<path d="M395.65 0C393.6 10.65 384.71 4.48001 380.26 4.71001C360 5.76001 339.64 4.64 319.31 4.37C316.15 4.33 315.14 2.94 315.92 0C342.5 0 369.08 0 395.65 0Z" fill="#CCCCCC" fill-opacity="0.6"/>
<path d="M0 390.68C6.44 391.53 10.26 388.92 12.76 382.73C14.64 378.07 18.6 371.94 24.06 375.1C30.52 378.83 22.28 381.7 21.17 385.14C17.88 395.43 15.03 406.47 0 402.63C0 398.65 0 394.66 0 390.68Z" fill="#CCCCCC" fill-opacity="0.6"/>
<path d="M1160.4 793.72C1166.47 789.24 1168.63 783.41 1167.02 775.95C1166.47 773.37 1167.13 769.76 1170.63 770.33C1176.86 771.35 1185.31 768.82 1188.6 775.09C1190.82 779.31 1183.88 778.52 1180.87 779.76C1173.07 782.96 1174.01 792.15 1169.01 797.29C1165.36 797.29 1161.7 797.29 1158.05 797.29C1158.84 796.1 1159.62 794.91 1160.4 793.72Z" fill="#CCCCCC" fill-opacity="0.6"/>
<path d="M1195.93 553.12C1193.04 560.57 1190.33 568.09 1187.14 575.4C1186.3 577.32 1184.18 579.24 1182.22 579.9C1180.87 580.36 1178.79 578.66 1177.03 577.92C1178.21 576.1 1179.99 574.42 1180.44 572.44C1181.78 566.55 1182.78 560.66 1189.52 558.32C1184.28 556.47 1181.33 553.5 1185.86 548.36C1188.85 544.97 1192.55 542.21 1195.93 539.17C1195.93 543.82 1195.93 548.47 1195.93 553.12Z" fill="#CCCCCC" fill-opacity="0.6"/>
<path d="M1195.93 690.66C1171.22 682.14 1184.82 702.57 1181.65 710.02C1180.18 713.47 1185.42 720.63 1179.77 721.06C1174.62 721.46 1175 713.42 1174.88 709.23C1174.67 701.69 1176.04 694.06 1177.25 686.55C1177.55 684.7 1179.44 682.26 1181.16 681.66C1184.26 680.57 1184.14 683.58 1184.58 685.64C1184.65 685.97 1186.32 686.26 1186.33 686.24C1188.63 679.96 1191.1 675.19 1195.93 684.69C1195.93 686.67 1195.93 688.66 1195.93 690.66Z" fill="#CCCCCC" fill-opacity="0.6"/>
<path d="M477.38 797.29C484 788.19 478.02 778.35 479.15 768.94C479.31 767.64 480.79 766.5 481.66 765.29C482.75 766.14 484.77 766.99 484.77 767.85C484.82 775 492.06 781.04 487.94 789.1C487.48 789.99 497.26 790.77 492.33 797.28C487.34 797.29 482.36 797.29 477.38 797.29Z" fill="#CCCCCC" fill-opacity="0.6"/>
<path d="M859.08 797.29C862.8 791.66 864.42 781.84 871.22 781.88C877.38 781.91 877.05 791.92 880.01 797.29C873.03 797.29 866.05 797.29 859.08 797.29Z" fill="#CCCCCC" fill-opacity="0.6"/>
<path d="M352.8 797.29C352.35 788.38 351.77 779.47 351.58 770.56C351.55 769.13 353.25 767.65 354.15 766.2C355.15 767.56 356.85 768.82 357.03 770.28C358.14 779.26 358.9 788.28 359.78 797.29C357.45 797.29 355.12 797.29 352.8 797.29Z" fill="#CCCCCC" fill-opacity="0.6"/>
<path d="M0 529.2C8.06 534.42 16.27 539.45 24.03 545.09C25.18 545.93 25.14 551.14 24.1 551.77C20.94 553.68 20.86 549.32 19.22 548.3C13.09 544.49 6.45 541.48 0 538.18C0 535.18 0 532.19 0 529.2Z" fill="#CCCCCC" fill-opacity="0.6"/>
<path d="M946.78 797.29C946.14 791.62 948.5 791.03 953.82 791.61C959.59 792.24 965.6 790.26 971.49 790.31C975.39 790.35 976.02 793.89 975.68 797.28C966.05 797.29 956.41 797.29 946.78 797.29Z" fill="#CCCCCC" fill-opacity="0.6"/>
<path d="M291.8 357.87C308.81 364.48 310.49 344.4 321.37 339.76C332.88 334.85 346.75 332.45 351.34 348.19C355.9 363.83 362.4 352.79 367.8 350.88C369.98 350.11 372 347.53 374.02 349.65C378.35 354.21 391.15 345.79 389.2 360.04C388.05 368.4 396.25 371.95 401.3 371.62C408.84 371.14 417.26 368.36 420.98 359.72C422.51 356.17 424.49 352.79 425.71 349.14C426.56 346.6 427.13 343.57 426.5 341.1C426.23 340.03 422.6 339.84 420.51 339.21C406.44 334.95 392.02 344.44 378.04 338.08C376.71 337.47 375.71 336.12 374.56 335.12C375.61 334.06 376.52 332.31 377.74 332.05C393.01 328.82 408.1 323.22 424.09 328.29C425.89 328.86 428.03 328.35 430.01 328.33C429.1 327.09 427.88 325.96 427.35 324.57C426.82 323.17 426.31 320.67 426.97 320.14C428.52 318.91 430.78 317.95 432.75 317.96C481.52 318.07 530.28 318.18 579.05 318.58C643.23 319.11 707.4 319.93 771.57 320.53C817.28 320.96 862.99 321.24 908.7 321.58C938.9 321.8 969.11 321.72 999.3 322.4C1007.46 322.58 1008.75 320.72 1008.65 312.36C1008.12 271.55 1009.33 230.71 1008.86 189.89C1008.53 161.51 1005.68 133.16 1005.49 104.79C1005.35 83.86 1007.63 62.91 1009.06 41.99C1009.14 40.83 1011.5 38.71 1012.43 38.89C1017.61 39.93 1018.64 44.16 1018.9 48.69C1020.44 75.59 1016.66 102.3 1017.94 129.42C1020.59 185.58 1018.86 241.95 1018.91 298.24C1018.94 330.32 1011.57 335.68 979.83 332.44C953.37 329.74 926.64 330.74 900.05 333.32C893.46 333.96 886.68 332.65 879.99 332.25C877.63 332.11 875.26 332.01 872.89 331.9C874.92 333.69 877.1 335.35 878.92 337.33C880.41 338.95 881.83 340.85 882.53 342.89C882.75 343.52 880.29 346.06 879.48 345.87C877.52 345.42 875.69 344.05 874.04 342.75C862.24 333.44 850.13 330.97 837.26 340.7C834.74 342.61 832.03 344.27 829.41 346.05C831.1 342.3 832.74 338.51 834.53 334.81C835.04 333.75 836.01 332.91 836.76 331.98C835.68 331.71 834.6 331.19 833.53 331.22C812.14 331.71 790.74 332.97 769.36 332.65C734.29 332.12 699.25 330.05 664.18 329.58C619.66 328.98 575.13 329.09 530.61 329.36C499.08 329.55 467.55 330.52 436.03 331.21C435.34 331.23 434.01 332.33 434.08 332.54C435.81 337.57 437.47 342.65 439.64 347.49C440.78 350.02 442.89 352.12 444.55 354.42C442.3 354.37 439.74 353.59 437.84 354.38C428.98 358.07 424.3 366.15 419.82 373.84C418.76 375.66 422.67 374.86 424.6 374.15C428.91 372.56 433.35 372.83 436.65 376.08C439.93 379.3 438.27 381.15 434.12 380.77C432.37 380.61 430.23 378.68 429.04 379.23C419.43 383.67 410.15 382.83 400.92 378.32C400.51 379.46 399.42 381.25 399.8 381.65C407.95 390.35 405.25 401.91 408.04 411.99C408.47 413.54 409.67 414.88 410.51 416.32C411.08 414.71 411.87 413.15 412.15 411.49C412.43 409.88 412.18 408.18 412.19 406.52C412.22 401.77 407.25 396.65 413.14 392.42C413.84 391.92 415.88 392.18 416.49 392.84C421.2 397.92 421.84 404.69 420.26 410.48C417.33 421.24 420.58 423.12 430.21 419.91C435.09 418.28 439.74 418.34 442.89 423.92C444.08 426.03 446.94 427.21 449.03 428.81C450.69 422.07 451.2 414.75 454.26 408.73C459.07 399.28 449.31 397.41 446.99 391.81C445.21 387.52 447.84 385.08 450.58 383.83C453.84 382.34 454.81 385.65 455.78 388.22C458.25 394.73 460.85 401.19 463.48 407.63C463.63 408 464.5 408.08 465.03 408.3C465.76 394.33 481.24 399.27 486.85 391.42C487.43 390.6 489.64 390.95 491.1 390.75C490.98 396.59 501.22 396.55 498.57 403.54C497.17 407.24 493.74 406.05 490.8 405.38C485.76 404.25 479.32 400.42 475.98 405.16C472.76 409.73 472.89 416.68 471.71 422.62C471.55 423.42 472.24 424.49 472.74 425.3C474.35 427.92 482.83 424.5 479.14 429.97C476.39 434.04 470.62 427.93 466.25 426.28C464.23 425.52 462 422.45 460.78 422.9C456.81 424.37 455.93 428.31 455.79 432.31C455.68 435.6 455.9 438.53 459.6 440.13C461.15 440.8 462.26 442.5 463.57 443.73C461.85 445.05 459.32 447.88 458.53 447.46C451.05 443.5 437.48 446.72 439.07 431.6C439.51 427.36 438.07 425.87 434.02 428.75C425.34 434.93 415.16 433.88 408.92 427.44C403.03 421.36 399.32 411.66 397.98 403.04C396.18 391.42 391.92 382.1 383.82 373.89C380.47 370.5 378.8 365.41 375.35 362.19C372.25 359.29 367.99 359.86 365.04 363.57C358.35 371.98 353.21 373.08 342.46 366.39C333.08 360.55 318.4 369.91 306.62 363.26C301.71 373.23 294.54 368.37 288.16 365.69C284.18 364.02 275.88 367.76 276.68 361.98C277.61 355.29 286.05 359.79 291.8 357.87ZM331.97 346.69C327.89 349.08 319.95 343.29 319.43 352.81C319.06 359.55 324.64 359.06 328.65 358.24C334.43 357.06 344.37 363.22 345 352.34C345.52 343.44 336.54 349.04 331.97 346.69Z" fill="#CCCCCC" fill-opacity="0.6"/>
<path d="M310.4 292.67C310.4 244.33 310.38 195.98 310.41 147.64C310.43 115.85 310.52 84.05 310.48 52.26C310.48 51 309.05 48.6 308.89 48.65C298.54 51.96 288.57 40.13 277.64 48.66C270.87 53.94 261.29 54.06 253.98 49.97C246.48 45.78 251.8 35.76 248.17 29.11C247.85 28.52 250.22 25.7 251.8 25.07C253.02 24.59 255.87 25.48 256.38 26.55C257.32 28.49 258.11 31.74 257.11 33.13C254.56 36.69 255.15 40.25 257.5 42.45C259.05 43.9 263.34 43.99 265.51 42.9C273.5 38.89 288.14 40.55 282.95 24.06C282.77 23.47 286.43 20.76 286.84 21.06C289.19 22.76 293.14 25.4 292.86 27.13C289.55 48.03 299.95 42.06 310.35 36.38C313.36 34.73 316.3 32.12 319.82 35.06C323.13 37.82 320.51 41.09 320.44 44.21C319.94 65.84 319.62 87.48 319.45 109.12C319.22 136.97 319.21 164.82 319.05 192.67C318.87 225.36 318.64 258.05 318.43 290.75C318.42 292.86 318.7 295.03 318.29 297.06C314.76 314.66 321.43 321.04 339.23 317.79C347.43 316.29 356.13 317.4 364.6 317.59C368.61 317.68 371.61 315.86 371.83 312.27C373.28 288.94 389.13 273.4 401.59 255.97C405.88 249.97 400.08 246.06 398.02 241.35C397.19 239.45 396.91 236.99 397.37 235.01C397.56 234.2 400.62 233.23 401.96 233.65C420.63 239.57 442.07 268.82 441.81 287.91C441.76 291.35 442.62 296.57 437.96 296.78C433.45 296.98 433.4 291.91 433.17 288.32C432.32 275.15 418.63 270.08 414.7 258.88C410.17 263.92 405.37 268.75 401.16 274.04C390.83 287.04 385.14 302.91 376.63 316.62C363.58 337.65 340.11 328.69 321.32 325.3C304.17 322.23 308.78 305.15 310.4 292.67Z" fill="#CCCCCC" fill-opacity="0.6"/>
<path d="M790.91 533.96C791.86 526.67 792.62 518.64 802.53 515.55C804.19 515.03 806.11 509.19 805.6 508.79C797.16 502.27 795.36 488.35 780.77 488.45C748.59 488.67 716.41 487.77 684.22 487.48C661.52 487.27 638.82 487.38 616.12 487.2C594.14 487.03 572.15 486.42 550.18 486.58C545.14 486.62 540.32 489.11 535.05 486.37C531.11 484.33 522.66 486.62 524.52 479.49C526.05 473.63 533.9 477.49 538.43 477.45C589.81 476.94 641.2 476.88 692.59 477.34C723.4 477.61 754.19 479.03 785 479.83C786.8 479.88 789.87 479.36 790.21 478.37C791.58 474.4 791.58 470.31 788.53 466.71C773.25 448.68 781.28 405.16 801.28 392.23C806.62 388.77 808.9 384.54 814.49 391.65C816.19 393.82 822.03 392.12 821.77 386.43C821.73 385.45 821.19 384.49 821.22 383.53C821.44 377.31 819.42 367.42 825.48 366.48C832.71 365.35 830.55 375.34 831.12 380.21C832.44 391.42 839.34 392.64 847.98 391.68C853.27 391.09 858.09 391.26 861.08 396.22C861.77 397.37 861.28 400.33 860.26 401.21C855.67 405.19 851.63 401.82 847.73 399.5C826.6 386.91 794.03 408.33 791.84 436.74C791.15 445.76 784.4 458.32 801.92 460.13C802.51 460.19 803.68 465.88 802.68 468.11C797.59 479.53 804.39 488.06 809.08 497.05C813.47 505.47 817.52 513.03 807.19 520.84C803.82 523.39 802.79 529.72 801.81 534.55C800.93 538.85 799.86 543.03 795.19 542.98C790.53 542.9 791.02 538.31 790.91 533.96Z" fill="#CCCCCC" fill-opacity="0.6"/>
<path d="M442.6 32.53C497.45 32.53 552.3 32.27 607.15 32.6C668.46 32.97 729.78 34.11 791.09 34.43C826.42 34.62 861.76 33.77 897.09 33.63C902.29 33.61 907.53 34.75 912.66 35.84C913.95 36.11 914.85 38.26 915.93 39.54C915.03 39.99 914.13 40.83 913.24 40.82C890.15 40.68 867.05 40.42 843.96 40.26C813.02 40.05 782.07 39.75 751.13 39.77C706.85 39.79 662.58 40.25 618.31 40.17C570.86 40.08 523.41 39.55 475.96 39.26C461.32 39.17 446.68 39.33 432.04 39.18C428.65 39.15 422.94 40.47 422.91 36.12C422.88 31.47 428.76 33.05 432.18 32.62C435.59 32.19 439.12 32.53 442.6 32.53Z" fill="#CCCCCC" fill-opacity="0.6"/>
<path d="M518.98 545.97C514.52 506.1 544.17 522.28 561.06 521.38C589.81 519.86 618.73 521.81 647.58 521.79C690.73 521.76 733.87 521.23 777.02 521.2C778.55 521.2 781.41 524.29 781.38 525.88C781.26 530.98 781.39 536.92 778.82 540.83C777.22 543.28 775.08 538.12 773.87 535.92C771.96 532.45 768.93 532.54 765.72 532.54C704.01 532.55 642.31 532.61 580.6 532.5C566.26 532.48 551.93 531.83 537.59 531.57C529.49 531.42 526.84 537.17 528.18 543.34C529.8 550.84 529.4 557.31 525.07 563.46C524.61 564.11 522.03 564.31 521.58 563.77C517.1 558.36 519.59 551.76 518.98 545.97Z" fill="#CCCCCC" fill-opacity="0.6"/>
<path d="M1083.85 454.31C1072.75 457.71 1068.04 467.66 1066.33 476.25C1064.02 487.86 1058.45 500.64 1066.37 512.75C1066.61 513.12 1064.32 516.16 1063.15 516.2C1061.42 516.26 1058.78 515.2 1058.03 513.81C1054.43 507.15 1058.25 495.82 1050.66 492.98C1035.78 487.41 1019.83 484.57 1003.8 490.18C993.87 493.66 983.84 496.86 973.79 499.98C972.6 500.35 970.99 499.38 969.57 499.04C970.42 497.87 971.06 496.41 972.16 495.57C985.04 485.8 999.16 479.9 1015.48 477.34C1030.75 474.95 1035.59 459.02 1045.31 449.3C1051.35 443.25 1061.09 441.01 1061.46 430.09C1061.49 429.15 1064.28 427.25 1065.07 427.57C1068.02 428.75 1070.99 430.35 1073.26 432.53C1073.93 433.17 1072.57 436.37 1071.62 438.12C1070.7 439.81 1069.12 441.14 1067.83 442.63C1069.59 441.32 1071.43 440.12 1073.07 438.68C1075.15 436.87 1077.52 434.61 1079.66 437.57C1080.47 438.69 1079.11 442.03 1077.9 443.77C1076.22 446.19 1073.75 448.06 1071.62 450.16C1075.17 448.92 1078.72 447.68 1082.27 446.43C1084.02 445.81 1085.76 445.18 1087.51 444.56C1087.62 446.06 1088.27 447.8 1087.73 449C1086.86 450.95 1085.19 452.56 1083.85 454.31ZM1037.73 476.91C1037.88 485.39 1045.86 483.24 1049.66 486.46C1050.6 487.25 1052.66 486.72 1054.21 486.79C1053.36 484.43 1052.49 482.08 1051.66 479.72C1050.17 475.46 1053.13 473.12 1055 469.79C1058.19 464.11 1059.46 457.35 1061.53 451.04C1060.83 450.86 1060.04 450.36 1059.46 450.54C1046.27 454.64 1040.21 464.53 1037.73 476.91Z" fill="#CCCCCC" fill-opacity="0.6"/>
<path d="M915.52 264.89C915.52 198.47 915.39 132.06 915.76 65.64C915.79 60.42 913.71 50.61 920.13 50.6C925.83 50.59 923.15 60.11 923.08 65.27C922.35 120.89 921.17 176.5 920.35 232.12C920.02 254.78 920.28 277.45 920.2 300.12C920.19 302.24 920.96 305.53 917.24 304.93C916.11 304.75 914.67 301.91 914.64 300.26C914.42 288.47 914.52 276.68 914.52 264.89C914.86 264.89 915.19 264.89 915.52 264.89Z" fill="#CCCCCC" fill-opacity="0.6"/>
<path d="M1022.38 412.49C1011.83 407.7 1015.49 395.88 1009.5 389.67C1006.64 386.7 1005.11 382.27 1003.56 378.28C1002.9 376.59 1002.97 373.21 1004 372.52C1008.02 369.82 1011.09 372.07 1013.41 375.66C1014.88 377.95 1016.38 380.22 1017.86 382.5C1019.23 379.93 1020.48 377.29 1022 374.82C1023.8 371.89 1025.9 369.15 1027.73 366.24C1028.53 364.97 1028.97 363.47 1029.58 362.07C1028.01 362.22 1026.41 362.66 1024.89 362.45C1023.09 362.21 1021.36 361.41 1019.59 360.86C1021.11 359.55 1022.6 357.16 1024.16 357.11C1044.98 356.42 1065.86 355.2 1086.63 356.14C1093.04 356.43 1099.24 362.71 1105.29 366.62C1105.77 366.93 1104.83 371.42 1103.75 371.82C1098.51 373.74 1093.64 371.76 1088.4 370.18C1075.33 366.25 1062.1 361.51 1048.07 364.33C1033.86 367.19 1032.72 381.01 1027.25 390.93C1026.18 392.87 1028.57 397.01 1029.89 399.9C1031.16 402.68 1039.09 400.88 1035.98 405.67C1033.68 409.2 1027.4 410.15 1022.38 412.49Z" fill="#CCCCCC" fill-opacity="0.6"/>
<path d="M279.42 377.71C279.01 397.18 257.34 422.31 240.41 424.58C238.96 424.78 235.78 422.8 235.87 422.22C238.11 407.86 224.18 397.28 228.67 380.72C231.49 370.31 215.01 363.31 205.24 357C200.7 354.07 194.95 353.04 189.92 350.77C188.42 350.09 187.49 348.16 186.3 346.8C187.92 346.25 189.65 345.02 191.14 345.26C223.69 350.46 235.01 362.56 238.77 394.6C239.46 400.52 244.29 406.66 249.9 406.87C257.29 407.15 259.54 398.87 262.53 393.32C266.09 386.7 268.44 379.44 271.58 372.58C272.03 371.59 274.97 370.59 275.1 370.78C277 373.47 278.62 376.36 279.42 377.71Z" fill="#CCCCCC" fill-opacity="0.6"/>
<path d="M496.54 512.72C488.7 498.41 487.24 482.03 484.53 465.87C483.54 459.97 481.41 454.58 485.85 449.36C489.69 454.97 495.49 460.11 496.99 466.29C501.03 482.98 505.21 500.11 505.26 517.08C505.28 524.3 515.46 539.01 496.64 541.72C485.63 543.31 484.16 538.71 485.99 529.78C486.95 525.11 487.21 520.29 488.13 515.61C488.39 514.31 489.71 512.94 490.92 512.26C491.35 512.02 493.14 513.55 493.83 514.59C494.48 515.56 494.49 516.96 494.78 518.16C495.28 516.63 495.77 515.1 496.54 512.72Z" fill="#CCCCCC" fill-opacity="0.6"/>
<path d="M536.76 611.33C530.98 615.34 529.78 621.86 527.28 627.91C526.32 630.22 518.85 631.05 514.65 630.45C510.4 629.84 511.18 624.94 510.82 621.28C509.42 606.94 507.6 592.65 506.29 578.31C506.11 576.3 508.53 572.23 508.7 572.29C513.9 574 520.03 563.82 523.49 571.65C528.97 584.07 532.25 597.45 536.76 611.33ZM518.7 595.7C518.34 598.62 516.86 602.11 517.97 604.3C518.85 606.04 515.64 616.61 522.08 609.06C525.12 605.49 520.08 595.05 518.7 587.71C518.7 590.37 518.7 593.02 518.7 595.7Z" fill="#CCCCCC" fill-opacity="0.6"/>
<path d="M55.98 426.83C52.51 416.46 49.37 409.61 38.4 415.5C37.04 416.23 34.89 415.48 33.11 415.41C33.85 413.99 34.23 411.88 35.4 411.27C43.64 406.97 51.87 395.8 61.11 409.17C70.13 422.2 66.41 436.07 61.28 449.3C60.02 452.55 57.31 450.27 56.22 447.42C55.42 445.34 54.21 443.42 53.18 441.43C52.85 443.82 52.41 446.21 52.21 448.62C51.88 452.46 50.52 459.84 49.46 459C38.84 450.66 27.99 473.01 18.23 458.42C16.31 455.55 20.23 456.02 34.61 449.53C43.51 445.51 49.19 434.38 55.98 426.83Z" fill="#CCCCCC" fill-opacity="0.6"/>
<path d="M357.2 286.15C352.79 256.54 371.18 246.37 386.92 234.45C387.78 233.8 391.09 234.55 391.22 235.12C391.8 237.6 392.65 240.86 391.56 242.76C383.53 256.67 375.02 270.3 366.77 284.09C365.16 286.77 366.51 293.02 362.02 291.6C358.51 290.5 356.37 285.1 357.2 286.15Z" fill="#CCCCCC" fill-opacity="0.6"/>
<path d="M493.17 649.44C491.2 669.92 493.13 689.76 495.18 709.6C495.47 712.43 494.39 714.5 491.29 714.82C487.97 715.16 487.7 713 486.87 710.3C480.95 690.97 480.6 671.03 480.86 651.2C480.99 641.47 484.26 631.76 486.28 622.08C486.4 621.49 488.52 620.61 488.99 620.93C490.09 621.68 491.39 623.01 491.49 624.2C492.22 632.76 492.67 641.33 493.17 649.44Z" fill="#CCCCCC" fill-opacity="0.6"/>
<path d="M512.65 511.15C498.71 508.63 511.26 504.53 510.9 501.49C509.83 492.5 511.11 482.41 507.37 474.74C501.77 463.25 518.37 459.84 513.99 449.94C512.9 447.47 512.85 444.45 512.73 441.66C512.56 437.55 507.28 431.28 513.41 429.82C520.34 428.18 522.36 436.48 522.16 441.11C521.19 463.56 519.19 485.97 517.21 508.37C517.12 509.55 513.86 510.45 512.65 511.15Z" fill="#CCCCCC" fill-opacity="0.6"/>
<path d="M495.16 643.38C496.06 637.04 496.73 630.65 497.99 624.38C498.38 622.46 500.36 620.86 501.62 619.11C502.95 621.2 505.45 623.29 505.44 625.38C505.4 646.34 505.02 667.3 504.51 688.25C504.44 691.2 504.18 695.15 499.62 694.85C494.88 694.54 494 690.84 493.98 686.96C493.93 672.47 493.96 657.98 493.96 643.49C494.37 643.45 494.77 643.42 495.16 643.38Z" fill="#CCCCCC" fill-opacity="0.6"/>
<path d="M158.95 721.35C150.72 720.39 140.63 726.78 139.49 718.87C138.69 713.33 150.95 714.67 157.22 712.48C178.42 705.09 200.33 701.73 222.79 702.32C225.07 702.38 228.71 700.63 229.3 704.69C229.96 709.17 225.66 708.34 223.72 708.22C200.27 706.67 179.11 716.72 158.95 721.35Z" fill="#CCCCCC" fill-opacity="0.6"/>
<path d="M181.18 663.23C183.27 664.39 184.89 665.29 186.5 666.19C184.92 667.48 183.54 669.31 181.74 669.99C158.16 678.82 135.61 689.43 116.62 706.47C114.08 708.75 110.91 711.04 107.41 708.48C106.7 707.96 106.97 704.47 107.94 703.5C128.39 683.1 153.36 671.03 181.18 663.23Z" fill="#CCCCCC" fill-opacity="0.6"/>
<path d="M1083.68 436.33C1091.45 428.93 1100.79 424.84 1110.34 423.71C1120.07 422.56 1130.21 424.36 1140.09 425.54C1142.79 425.86 1148.72 425.16 1147.62 429.33C1146.88 432.16 1140.21 436.2 1137.71 435.33C1124.44 430.7 1111.67 437.55 1098.65 436.04C1096.86 435.83 1094.79 439.77 1092.51 441.29C1091.2 442.16 1088.8 442.79 1087.65 442.16C1086.2 441.36 1085.51 439.16 1083.68 436.33Z" fill="#CCCCCC" fill-opacity="0.6"/>
<path d="M230.86 123.62C230.86 111.2 230.88 98.78 230.85 86.36C230.84 82.74 232.31 79.79 235.98 79.69C239.98 79.59 238.17 83.35 238.59 85.46C242.35 104.23 240.44 122.76 235.8 141.09C235.36 142.84 233.04 144.11 231.59 145.6C230.85 143.4 229.52 141.2 229.47 138.99C229.36 133.88 229.87 128.75 230.13 123.62C230.37 123.63 230.61 123.62 230.86 123.62Z" fill="#CCCCCC" fill-opacity="0.6"/>
<path d="M602.79 557.46C581.1 557.46 563.35 557.52 545.61 557.39C543.02 557.37 539.2 557.8 539.35 553.86C539.39 552.75 543.31 550.96 545.5 550.89C566.07 550.18 586.66 549.68 607.24 549.42C609.82 549.39 614.91 549.39 613.89 553.32C611.76 561.52 604.03 557.01 602.79 557.46Z" fill="#CCCCCC" fill-opacity="0.6"/>
<path d="M266.72 76.45C265.91 93.54 265.28 109.12 264.31 124.68C264.18 126.75 262.69 130.06 261.22 130.45C257.63 131.39 258.13 127.75 257.47 125.51C252.48 108.56 256.83 91.68 258.01 74.79C258.08 73.81 260.7 72.07 261.81 72.29C264.54 72.83 267.35 74.09 266.72 76.45Z" fill="#CCCCCC" fill-opacity="0.6"/>
<path d="M408.43 667.41C409.32 667.03 414 666.39 414.65 664.44C415.99 660.35 410.82 661.26 408.7 659.63C407.77 658.91 406.95 657.79 406.59 656.69C406.44 656.22 407.66 654.68 408.13 654.73C410.35 654.98 412.93 655.05 414.62 656.25C417.63 658.41 420.31 661.16 422.73 663.99C424.99 666.63 429.04 670.67 428.3 672.41C425.21 679.76 418.96 672.27 414.44 674.21C397.38 681.54 392.33 670.09 388.2 657.43C387.86 656.4 388.93 653.96 389.87 653.61C394.74 651.8 400.1 651.46 403.43 655.9C405.48 658.63 401.26 659 399.59 660.24C398.36 661.16 396.12 662.82 396.31 663.22C398.27 667.37 402.24 667.34 408.43 667.41Z" fill="#CCCCCC" fill-opacity="0.6"/>
<path d="M337.79 589.51C331.68 587.89 326.99 584.78 322.22 582.41C313.52 578.1 302.31 578.91 292.17 577.37C286.86 576.57 278.03 577.09 278.76 570.75C279.56 563.83 287.03 569.12 291.16 569.82C307.5 572.58 325.32 570.83 338.57 583.95C339.6 584.97 340.13 586.48 340.9 587.76C339.73 588.43 338.55 589.09 337.79 589.51Z" fill="#CCCCCC" fill-opacity="0.6"/>
<path d="M1035.72 420.68C1036.04 419.99 1036.67 418.11 1037.79 416.6C1038.04 416.26 1040.18 417 1041.2 417.64C1042.81 418.66 1044.2 420.01 1045.68 421.22C1045.19 419.14 1045.26 416.66 1044.11 415.04C1038.52 407.18 1046.66 403.74 1050.06 401.2C1054.46 397.92 1055.33 404.19 1056.97 407.37C1062.6 418.27 1055.22 427.92 1049.35 432.76C1042.77 438.19 1036.49 431.04 1035.72 420.68Z" fill="#CCCCCC" fill-opacity="0.6"/>
<path d="M952.37 446.89C944.89 445.31 937.19 445.57 943.18 434.25C947.12 426.81 947.81 417.69 950.47 409.5C951.03 407.78 953.99 405.61 955.65 405.76C958.77 406.04 958.07 408.92 957.45 411.29C956.13 416.34 953.85 421.69 961.68 423.92C962.52 424.16 963.31 427.33 962.87 428.75C961.16 434.27 946.88 434.08 955.77 444.52C954.5 445.41 953.23 446.3 952.37 446.89Z" fill="#CCCCCC" fill-opacity="0.6"/>
<path d="M5.76001 425.83C8.20001 420.33 10.07 413.44 13.98 408.02C17.75 402.79 25.78 398.27 30.49 402.67C34.73 406.63 25.86 410.43 23.08 413.73C15.72 422.46 13.8 431.59 15.41 442.28C15.66 443.96 14.69 445.82 14.29 447.6C13.04 446.17 11.21 444.94 10.65 443.28C8.90002 438.01 7.61001 432.58 5.76001 425.83Z" fill="#CCCCCC" fill-opacity="0.6"/>
<path d="M81.08 678.44C81.57 676.31 82.33 673.01 83.09 669.71C85.03 672.97 86.21 677.93 89.05 679.22C107.4 687.54 90.73 701.64 94.83 712.2C95.32 713.46 93.25 715.71 92.36 717.5C91.38 716.73 89.74 716.11 89.51 715.16C86.67 703.36 84.04 691.53 81.08 678.44Z" fill="#CCCCCC" fill-opacity="0.6"/>
<path d="M425.92 293.03C425.92 299.03 426.08 304.44 425.85 309.83C425.74 312.49 427.33 316.93 422.87 316.75C420.97 316.67 417.81 312.63 417.7 310.28C417.32 302.45 415.36 298.16 406.41 301.19C404.83 301.72 402.51 300.04 400.53 299.38C401.87 297.94 403.09 296.35 404.58 295.1C407.08 293.01 410.12 291.46 412.27 289.08C415.17 285.89 417.8 283.86 422.5 285.41C427.29 286.97 425.34 290.68 425.92 293.03Z" fill="#CCCCCC" fill-opacity="0.6"/>
<path d="M985.86 39.94C984.44 31.55 982.11 26.09 976.62 28.7C968.04 32.78 965.28 25.83 960.63 22.33C959.97 21.83 960.75 19.41 960.86 17.88C970.59 25.76 987.32 15.09 994.27 30.56C995.79 33.95 999.19 37.1 994.78 40.48C991.26 43.17 985.76 48.3 984 47.3C979.12 44.54 986 40.51 985.86 39.94Z" fill="#CCCCCC" fill-opacity="0.6"/>
<path d="M817.58 631.91C817.58 638.71 817.78 645.53 817.45 652.31C817.36 654.2 815.74 656.02 814.83 657.87C813.52 656.08 811.13 654.33 811.06 652.5C810.43 636.45 810.12 620.39 810.01 604.33C810 602.5 811.77 600.65 812.71 598.81C813.99 600.59 816.22 602.28 816.39 604.16C817.25 613.37 817.56 622.63 818.06 631.88C817.9 631.89 817.74 631.9 817.58 631.91Z" fill="#CCCCCC" fill-opacity="0.6"/>
<path d="M404.48 215.41C403.3 218.96 404.62 223.88 399.96 224.24C395.2 224.6 397.15 219.63 395.89 217.13C395.06 215.49 393.6 213.99 392.05 212.99C391.51 212.64 389.72 213.77 388.79 214.56C386.36 216.63 388.74 222.88 383.59 221.91C381.59 221.53 379.38 217.08 379.05 214.27C378.5 209.67 379.71 204.97 384.2 202.21C388.65 199.48 393.37 199.22 397.82 202.08C402.76 205.24 403.42 210.64 404.48 215.41Z" fill="#CCCCCC" fill-opacity="0.6"/>
<path d="M1138.76 412.83C1140.09 409.52 1133.66 409.47 1131.33 406.49C1130.14 404.97 1128.59 402.07 1129.22 401.1C1130.71 398.8 1133.19 396.77 1135.73 395.69C1136.72 395.27 1139.72 397.32 1140.44 398.87C1144.03 406.65 1146.57 414.93 1153.74 420.6C1154.87 421.49 1154.58 424.17 1154.94 426.02C1153.29 426.27 1151.17 427.3 1150.07 426.63C1145.35 423.79 1135.25 426.77 1138.76 412.83Z" fill="#CCCCCC" fill-opacity="0.6"/>
<path d="M1059.55 525.91C1065.92 529.78 1077.04 523.78 1081.01 535C1081.5 536.39 1081.02 538.13 1080.99 539.71C1079.48 539.59 1077.65 539.99 1076.53 539.27C1070.38 535.32 1063.96 536.33 1057.37 537.52C1053.83 538.16 1050.19 538.21 1046.59 538.52C1046.63 537.41 1046.21 535.79 1046.78 535.28C1050.56 531.87 1052.56 526.11 1059.55 525.91Z" fill="#CCCCCC" fill-opacity="0.6"/>
<path d="M477.39 377.43C477.12 377.8 474.77 381.84 474.2 381.6C466.47 378.4 458.86 374.84 451.64 370.64C450.81 370.16 451.55 363.92 453.23 362.76C457.43 359.86 460.88 364.21 463.13 366.72C467.24 371.29 478.91 362.13 477.39 377.43Z" fill="#CCCCCC" fill-opacity="0.6"/>
<path d="M183.53 358.03C189.11 359.45 193.82 360.02 197.91 361.92C200.58 363.16 202.46 366.25 204.43 368.72C204.71 369.07 203.23 371.48 203.09 371.44C200.44 370.5 197.27 369.94 195.4 368.1C189.62 362.39 188.41 370.5 184.86 371.15C180.64 371.93 176.37 372.47 172.12 373.12C172.19 370.57 171.22 366.97 172.53 365.68C175.79 362.47 180.08 360.32 183.53 358.03Z" fill="#CCCCCC" fill-opacity="0.6"/>
<path d="M498.42 378.16C492.21 377.83 484.88 378.27 485.51 370.12C486.13 362.09 493.45 369.6 497.19 367.4C497.31 367.33 497.52 367.37 497.68 367.4C505.43 368.53 514.48 365.15 520.03 373.86C512.83 375.29 505.62 376.73 498.42 378.16Z" fill="#CCCCCC" fill-opacity="0.6"/>
<path d="M448.08 487.67C440.39 480.28 428.51 486.84 421.36 478.23C426.38 477.93 420.17 470.47 426.66 470.44C437.91 470.38 445.95 475.14 451.35 484.72C451.49 484.95 449.62 486.3 448.08 487.67Z" fill="#CCCCCC" fill-opacity="0.6"/>
<path d="M958.96 556.6C958.5 538.3 971.56 532.42 982.25 524.73C982.84 524.31 985.4 525.35 985.38 525.56C985.19 527.58 985.25 530.05 984.11 531.48C977.26 540.01 964.8 543.8 962.93 556.67C962.84 557.27 960.55 558.18 959.68 557.86C958.87 557.55 958.6 555.8 958.96 556.6Z" fill="#CCCCCC" fill-opacity="0.6"/>
<path d="M1065.21 412.06C1067.81 401.97 1041.15 391.84 1066.82 384.69C1067.58 384.48 1070.68 388.81 1070.37 389.2C1064.13 397.16 1075.76 407.24 1067.26 414.73C1066.36 413.57 1065.46 412.4 1065.21 412.06Z" fill="#CCCCCC" fill-opacity="0.6"/>
<path d="M1038.69 548.85C1030.2 546.41 1019.7 548 1013.62 539.4C1011.94 537.02 1016.62 536.56 1018.54 536.93C1027.96 538.73 1039.39 536.15 1045.23 546.31C1046.79 549.03 1041.24 547.65 1038.69 548.85Z" fill="#CCCCCC" fill-opacity="0.6"/>
<path d="M992.03 532.65C990.12 530.95 988.71 530.02 988.82 529.76C990.42 526.08 991.33 521.32 994.18 519.15C999.21 515.33 1005.42 513.04 1011.22 510.31C1012.01 509.94 1014.25 510.72 1014.24 510.87C1014.12 512.75 1014.18 514.88 1013.3 516.43C1008.41 525.09 995.77 522.35 992.03 532.65Z" fill="#CCCCCC" fill-opacity="0.6"/>
<path d="M320.22 495.76C333.32 497.46 344.67 500.62 354.63 507.59C355.48 508.18 355.37 510.14 355.71 511.47C354.72 511.42 353.67 511.56 352.75 511.28C342.24 508.12 331.72 504.98 321.27 501.61C319.6 501.07 318.27 499.44 316.79 498.31C318.15 497.29 319.52 496.28 320.22 495.76Z" fill="#CCCCCC" fill-opacity="0.6"/>
<path d="M376.72 474.81C376.17 475.28 375.26 476.65 374.11 476.89C372.96 477.13 370.96 476.67 370.39 475.81C365.57 468.58 360.98 461.19 356.4 453.81C356.08 453.3 356.12 452.05 356.48 451.76C357.02 451.33 358.24 451.06 358.75 451.39C367.38 456.75 373.98 463.78 376.72 474.81Z" fill="#CCCCCC" fill-opacity="0.6"/>
<path d="M331.02 702.29C323.08 707.67 316.43 712.28 309.57 716.55C309.19 716.78 305.79 713.05 305.85 712.97C311.19 706.87 316.63 700.71 324.93 698.74C326.19 698.44 327.98 700.43 331.02 702.29Z" fill="#CCCCCC" fill-opacity="0.6"/>
<path d="M1162.4 500.82C1157.9 498.37 1152.62 499.76 1150.58 494.77C1149.81 492.88 1148.4 489.67 1149.08 489.06C1151.78 486.61 1152.44 490.46 1154.16 491.26C1156.75 492.48 1160.64 493.59 1162.8 492.47C1166.92 490.34 1161.37 489.85 1161.3 488.21C1161.25 487 1161.1 485.22 1161.76 484.72C1162.48 484.17 1164.1 484.82 1165.33 484.94C1164.32 490.62 1176.48 485.62 1172.22 492.98C1170.22 496.43 1165.61 498.36 1162.4 500.82Z" fill="#CCCCCC" fill-opacity="0.6"/>
<path d="M304.59 443.98C300.77 444.43 296.54 446.11 293.22 445.03C288.88 443.61 283.43 441.3 284.91 434.67C285.13 433.67 287.96 432.18 288.22 432.41C293.33 437.04 303.92 432.93 305.45 443.13C305.16 443.41 304.88 443.7 304.59 443.98Z" fill="#CCCCCC" fill-opacity="0.6"/>
<path d="M87.92 344.22C96.52 345.37 104.43 346.26 112.27 347.64C113.65 347.88 115 350.02 115.73 351.58C116.07 352.31 114.79 354.73 114.45 354.69C112.84 354.5 111.35 353.47 109.73 353.19C102.31 351.93 94.86 350.91 87.46 349.54C86.4 349.34 85.6 347.74 84.68 346.78C85.83 345.87 86.98 344.96 87.92 344.22Z" fill="#CCCCCC" fill-opacity="0.6"/>
<path d="M507.73 388.46C512 389.74 516.5 391.09 521 392.44C517.72 399.06 510.31 397.02 505.06 399.45C503.35 400.24 496.45 395.46 496.59 393.57C497.07 387.12 503.57 390.42 507.73 388.46Z" fill="#CCCCCC" fill-opacity="0.6"/>
<path d="M1040.44 532.91C1033.92 532.09 1024.37 537.16 1024.17 529.27C1023.98 522 1033.97 525.4 1039.53 525.1C1042.19 524.95 1047.31 524.08 1047.36 528.51C1047.41 533.02 1042.68 532.39 1040.44 532.91Z" fill="#CCCCCC" fill-opacity="0.6"/>
<path d="M819.43 529.06C819.86 533.12 817.75 535.85 815.21 534.99C811.48 533.74 804.91 537.08 804.26 530.61C803.59 523.88 809.77 521.67 814.78 521.38C819.5 521.11 818.44 526.64 819.43 529.06Z" fill="#CCCCCC" fill-opacity="0.6"/>
<path d="M1124.66 423.98C1121.44 422.37 1114.81 424.47 1114.61 419.27C1114.48 416.08 1119.38 410.25 1122.47 409.94C1127.17 409.46 1129.5 415.09 1130.33 419.67C1130.98 423.32 1127.87 423.69 1124.66 423.98Z" fill="#CCCCCC" fill-opacity="0.6"/>
<path d="M445.19 416.96C438.23 419.6 436.94 417.08 437.25 413.62C437.81 407.4 439.39 401.46 445.98 398.91C446.54 398.69 449.57 401.88 449.32 403.03C448.15 408.42 446.22 413.66 445.19 416.96Z" fill="#CCCCCC" fill-opacity="0.6"/>
<path d="M505.54 447.8C504.06 448.98 502.53 450.79 502.01 450.53C498.17 448.63 491.79 449.55 491.33 443.8C491.08 440.63 490.61 434.29 495.93 434.55C503.21 434.9 501.51 443.15 505.54 447.8Z" fill="#CCCCCC" fill-opacity="0.6"/>
<path d="M252.17 357.49C254.38 357.61 259.46 358.57 261.13 364.56C261.38 365.46 258.28 368.57 257.38 368.32C251.23 366.62 244.58 365.21 239.68 361.56C238.34 360.57 244.96 357.36 252.17 357.49Z" fill="#CCCCCC" fill-opacity="0.6"/>
<path d="M442.77 684.43C441.89 683.24 440.38 681.35 440.47 681.27C445.37 676.92 450.39 672.69 455.55 668.65C455.66 668.56 458.75 671.34 458.51 671.88C455.49 678.38 449.53 681.36 442.77 684.43Z" fill="#CCCCCC" fill-opacity="0.6"/>
<path d="M920.47 344.3C917.09 341.07 910.64 348.04 911.23 341.83C911.83 335.44 920.34 337.2 925.4 336C927.44 335.52 930.34 338.68 932.86 340.18C928.61 341.59 924.37 343 920.47 344.3Z" fill="#CCCCCC" fill-opacity="0.6"/>
<path d="M951.67 533.78C953.97 528.87 953.04 523.15 959.01 522.17C960.07 522 962.92 525 962.67 525.89C961.32 530.72 961.03 536.39 955.78 538.97C955.36 539.19 952.99 535.48 951.67 533.78Z" fill="#CCCCCC" fill-opacity="0.6"/>
<path d="M343.06 533.48C338.26 538.97 342.37 547.61 334.63 551.12C334.53 551.17 332.41 548.34 332.77 547.59C335.5 541.88 333.4 534.17 339.95 530.2C340.2 530.05 341.76 532.09 343.06 533.48Z" fill="#CCCCCC" fill-opacity="0.6"/>
<path d="M335.03 383.02C329.56 381.98 326.37 379.9 326.3 375.51C326.28 374.19 329.09 371.49 330.05 371.72C334.03 372.67 339.07 373.35 339.68 378.41C339.86 379.91 336.26 381.87 335.03 383.02Z" fill="#CCCCCC" fill-opacity="0.6"/>
<path d="M299.01 496.92C304.73 498.45 309.96 499.01 311.9 504.57C312.09 505.11 309.2 507.42 309.02 507.28C304.76 503.95 297.2 507.3 295 500.53C294.76 499.76 297.86 497.92 299.01 496.92Z" fill="#CCCCCC" fill-opacity="0.6"/>
<path d="M904.82 624.55C902.3 641.32 890.1 627.43 884.05 632.06C882.47 633.27 879.6 632.96 877.31 633.04C873.14 633.19 867.85 639.44 865.49 634.5C862.6 628.47 870.1 625.76 874.31 624.14C883.04 620.78 886.47 614.27 888.84 606.12C889.45 604.01 892.11 602.51 893.84 600.72C895.42 602.55 897.6 604.14 898.46 606.27C900.91 612.41 902.85 618.77 904.82 624.55Z" fill="#CCCCCC" fill-opacity="0.6"/>
<path d="M863.28 748.83C861.68 750.16 860.1 752.47 858.89 752.29C853.62 751.5 852.49 746.92 852.27 742.64C852.2 741.24 854.99 738.38 856.39 738.43C862.65 738.66 860.6 744.7 863.28 748.83Z" fill="#CCCCCC" fill-opacity="0.6"/>
<path d="M1030.89 582.44C1014.86 607.05 1021.14 636.14 1015.73 662.89C1014.53 668.83 1028.96 668.02 1035.79 671.28C1037.58 672.13 1038.98 673.8 1040.55 675.1C1038.73 675.76 1036.75 677.25 1035.11 676.94C1010.7 672.39 1002.79 674.5 1010.27 639.97C1013.49 625.09 1015.41 609.48 1014.73 594.34C1014.25 583.59 1002.75 591.09 996.56 588.8C991.16 586.8 984.41 588.68 978.31 588.21C975.22 587.97 970.03 588.25 970.81 583.33C971.53 578.8 976.17 580.95 979.22 580.98C996.19 581.12 1013.15 581.35 1030.12 581.55C1030.38 581.84 1030.63 582.14 1030.89 582.44Z" fill="#CCCCCC" fill-opacity="0.6"/>
<path d="M1080.17 652.23C1070.95 658.03 1064.28 663.69 1056.59 666.05C1054.61 666.66 1058.21 659.52 1060.63 657.86C1065.21 654.72 1070.7 652.89 1075.89 650.69C1076.52 650.43 1077.63 651.29 1080.17 652.23Z" fill="#CCCCCC" fill-opacity="0.6"/>
<path d="M9.40003 723.94C11.95 716.24 8.51001 709.09 5.69001 701.65C4.86001 699.45 5.61001 694.75 7.10001 693.96C10.63 692.08 10.5 696.49 11.93 698.41C20.57 710.05 17.59 723.26 17.06 736.1C17 737.47 15.07 738.76 14.01 740.09C12.9 738.33 11.26 736.7 10.78 734.79C9.97 731.45 9.87003 727.95 9.40003 723.94Z" fill="#CCCCCC" fill-opacity="0.6"/>
<path d="M1155.42 707.04C1156.1 702.57 1155.81 697.52 1159.96 697.83C1164.04 698.14 1167.89 701.48 1171.84 703.49C1170.27 704.45 1168.71 705.42 1167.14 706.38C1163.68 697.88 1158.86 721.61 1155.42 707.04Z" fill="#CCCCCC" fill-opacity="0.6"/>
<path d="M982.61 785.95C972.11 793.38 961.57 788.61 951.26 786.59C949.5 786.24 947.43 784.96 946.53 783.48C945.83 782.32 946.13 779.33 947.05 778.71C948.5 777.73 951.15 777.29 952.74 777.95C962.46 781.99 972.33 778.72 982.1 778.99C984.58 779.06 987.27 779.35 986.64 782.56C986.38 783.91 984.02 784.83 982.61 785.95Z" fill="#CCCCCC" fill-opacity="0.6"/>
<path d="M163.92 502.97C164.64 502.58 167.33 500.65 167.67 501C173.79 507.33 179.63 513.92 185.39 520.57C185.46 520.65 183.5 523.24 182.85 523.08C172.81 520.74 163.67 517.26 163.92 502.97Z" fill="#CCCCCC" fill-opacity="0.6"/>
<path d="M218.77 512.57C221.22 507.7 223.51 503.15 225.8 498.59C229.72 503.33 234 507.58 240.28 509.04C238.67 511.48 237.05 513.92 235.44 516.36C232.46 505.15 222.31 523.51 218.77 512.57Z" fill="#CCCCCC" fill-opacity="0.6"/>
<path d="M201.47 560.72C200.62 559.5 199.91 558.47 199.19 557.43C204.06 554.58 208.94 551.74 213.81 548.89C216.04 553.44 225.02 543.76 222.8 551.36C220.5 559.25 209.19 557.26 201.47 560.72Z" fill="#CCCCCC" fill-opacity="0.6"/>
<path d="M142.49 406.54C140.2 407.41 137.85 409.14 136.84 408.56C128.53 403.79 122.81 412.95 115.59 412.11C113.37 411.85 110.75 408.95 109.66 406.63C108.35 403.85 111.04 402.59 113.53 402.29C121.09 401.39 127.6 391.62 136.18 399.55C137.67 400.94 138.93 402.59 142.49 406.54Z" fill="#CCCCCC" fill-opacity="0.6"/>
</svg>
