<?xml version="1.0" encoding="UTF-8"?>
<svg width="391px" height="146px" viewBox="0 0 391 146" version="1.1" xmlns="http://www.w3.org/2000/svg" xmlns:xlink="http://www.w3.org/1999/xlink">
    <!-- Generator: Sketch 55.2 (78181) - https://sketchapp.com -->
    <title>ves_logo</title>
    <desc>Created with Sketch.</desc>
    <g id="Page-1" stroke="none" stroke-width="1" fill="none" fill-rule="evenodd">
        <g id="Artboard" transform="translate(-838.000000, -209.000000)" fill-rule="nonzero">
            <g id="ves_logo" transform="translate(839.000000, 209.000000)">
                <path d="M151.513078,35 C149.903412,35 149.014756,34.6519921 148.847082,33.9559659 L141.201207,1.98863636 C141.067068,1.52461889 141,1.22632642 141,1.09375 C141,0.364579688 141.972492,0 143.917505,0 L145.828974,0 C147.505709,0 148.4279,0.480582315 148.595573,1.44176136 L152.569416,21.9247159 C152.73709,22.6538862 153.022131,24.6259309 153.424547,27.8409091 L153.625755,27.8409091 C153.860497,25.8854069 154.145538,23.9133622 154.480885,21.9247159 L158.50503,1.44176136 C158.672704,0.480582315 159.594894,0 161.27163,0 L163.132797,0 C165.044275,0 166,0.364579688 166,1.09375 C166,1.32575874 165.949699,1.62405121 165.849095,1.98863636 L158.203219,33.9559659 C158.035546,34.6519921 157.146889,35 155.537223,35 L151.513078,35 Z M185.955414,35 C183.985128,35 183,34.4546797 183,33.3640227 L183,1.63597734 C183,0.545320326 183.985128,0 185.955414,0 L188.095541,0 C190.031857,0 191,0.545320326 191,1.63597734 L191,33.3640227 C191,34.4546797 190.031857,35 188.095541,35 L185.955414,35 Z M214.966292,35 C212.988754,35 212,34.4681915 212,33.4045584 L212,1.99430199 C212,1.29629281 212.156553,0.789412785 212.469663,0.473646724 C212.782773,0.157880662 213.28539,0 213.977528,0 L222.233708,0 C225.265933,0 227.70486,0.756165278 229.550562,2.26851852 C231.396264,3.78087176 232.319101,6.29865285 232.319101,9.82193732 C232.319101,13.7108457 230.753574,16.5194595 227.622472,18.2478632 L227.622472,18.4472934 C228.347569,18.8461558 229.006739,19.5109165 229.6,20.4415954 C230.193261,21.3722744 230.638201,22.3694154 230.934831,23.4330484 L233.851685,33.005698 L234,33.6039886 C234,34.501429 232.978287,34.9501425 230.934831,34.9501425 L229.204494,34.9501425 C227.457669,34.9501425 226.468915,34.501429 226.238202,33.6039886 L223.617978,24.1310541 C223.321347,23.3998064 222.983522,22.8846169 222.604494,22.5854701 C222.225466,22.2863233 221.623974,22.1367521 220.8,22.1367521 L219.613483,22.1367521 L219.613483,33.4045584 C219.613483,34.4681915 218.624729,35 216.647191,35 L214.966292,35 Z M221.568807,15 C222.241594,15 222.814982,14.6487061 223.288991,13.9461078 C223.762999,13.2435095 224,12.2215636 224,10.8802395 C224,9.53891545 223.762999,8.55688934 223.288991,7.93413174 C222.814982,7.31137413 222.195722,7 221.431193,7 L219,7 L219,15 L221.568807,15 Z M258.922551,35 C256.984804,35 256.015945,34.4681915 256.015945,33.4045584 L256.015945,6.53133903 L250.453303,6.53133903 C249.952162,6.53133903 249.584663,6.33191083 249.350797,5.93304843 C249.116931,5.53418604 249,4.90266339 249,4.03846154 L249,2.49287749 C249,1.62867564 249.116931,0.997152991 249.350797,0.598290598 C249.584663,0.199428205 249.952162,0 250.453303,0 L269.496583,0 C270.031134,0 270.415337,0.199428205 270.649203,0.598290598 C270.883069,0.997152991 271,1.62867564 271,2.49287749 L271,4.03846154 C271,4.90266339 270.883069,5.53418604 270.649203,5.93304843 C270.415337,6.33191083 270.031134,6.53133903 269.496583,6.53133903 L263.883827,6.53133903 L263.883827,33.4045584 C263.883827,34.4681915 262.914968,35 260.977221,35 L258.922551,35 Z M301.024948,36 C297.266093,36 294.322256,35.0535306 292.193347,33.1605634 C290.064438,31.2675962 289,28.6141016 289,25.2 L289,1.62253521 C289,0.540839662 289.964647,0 291.893971,0 L293.889813,0 C295.819136,0 296.783784,0.540839662 296.783784,1.62253521 L296.783784,24.6929577 C296.783784,26.0788802 297.166316,27.2028126 297.931393,28.0647887 C298.69647,28.9267649 299.727644,29.3577465 301.024948,29.3577465 C302.288988,29.3577465 303.311846,28.9183143 304.093555,28.0394366 C304.875264,27.160559 305.266112,26.0450772 305.266112,24.6929577 L305.266112,1.62253521 C305.266112,0.540839662 306.23076,0 308.160083,0 L310.106029,0 C312.035353,0 313,0.540839662 313,1.62253521 L313,25.2 C313,28.6141016 311.943878,31.2675962 309.831601,33.1605634 C307.719324,35.0535306 304.783803,36 301.024948,36 Z M333.39521,35 C331.798395,35 331,34.6354203 331,33.90625 C331,33.6410972 331.0499,33.3428047 331.149701,33.0113636 L338.834331,1.39204545 C339.0672,0.464010511 340.081827,0 341.878244,0 L345.121756,0 C346.95144,0 347.9827,0.464010511 348.215569,1.39204545 L355.9002,33.0113636 C355.966734,33.4753811 356,33.7736736 356,33.90625 C356,34.6354203 355.284771,35 353.854291,35 L351.209581,35 C349.612766,35 348.731205,34.6519921 348.56487,33.9559659 L347.267465,27.890625 L339.682635,27.890625 L338.335329,33.9559659 C338.202261,34.6519921 337.4205,35 335.99002,35 L333.39521,35 Z M346,22 L343.711864,11.6944444 C343.474575,10.5277719 343.271187,9.29630278 343.101695,8 L342.847458,8 C342.677965,9.29630278 342.474577,10.5277719 342.237288,11.6944444 L340,22 L346,22 Z M374.877612,35 C374.234823,35 373.761196,34.8421193 373.456716,34.5263533 C373.152237,34.2105872 373,33.7037072 373,33.005698 L373,1.5954416 C373,0.531808547 373.981085,0 375.943284,0 L377.973134,0 C379.935333,0 380.916418,0.531808547 380.916418,1.5954416 L380.916418,28.468661 L388.477612,28.468661 C389.018908,28.468661 389.407959,28.6680892 389.644776,29.0669516 C389.881593,29.465814 390,30.0973366 390,30.9615385 L390,32.5071225 C390,33.3713244 389.881593,34.002847 389.644776,34.4017094 C389.407959,34.8005718 389.018908,35 388.477612,35 L374.877612,35 Z M145.844875,90 C145.213293,90 144.747924,89.8416682 144.448753,89.525 C144.149583,89.2083317 144,88.7000035 144,88 L144,57 C144,56.2999965 144.149583,55.7916682 144.448753,55.475 C144.747924,55.1583317 145.213293,55 145.844875,55 L160.554017,55 C161.052634,55 161.418281,55.199998 161.65097,55.6 C161.883658,56 162,56.633329 162,57.5 L162,59.05 C162,59.916671 161.883658,60.549998 161.65097,60.95 C161.418281,61.350002 161.052634,61.55 160.554017,61.55 L151.778393,61.55 L151.778393,68.8 L159.556787,68.8 C160.055404,68.8 160.421051,69 160.65374,69.4 C160.886428,69.800002 161.00277,70.433329 161.00277,71.3 L161.00277,72.85 C161.00277,73.716671 160.886428,74.349998 160.65374,74.75 C160.421051,75.150002 160.055404,75.35 159.556787,75.35 L151.778393,75.35 L151.778393,83.45 L160.603878,83.45 C161.102496,83.45 161.459833,83.649998 161.6759,84.05 C161.891968,84.450002 162,85.083329 162,85.95 L162,87.5 C162,88.366671 161.891968,89 161.6759,89.4 C161.459833,89.800002 161.102496,90 160.603878,90 L145.844875,90 Z M189.513078,90 C187.903412,90 187.014756,89.6519921 186.847082,88.9559659 L179.201207,56.9886364 C179.067068,56.5246189 179,56.2263264 179,56.09375 C179,55.3645797 179.972492,55 181.917505,55 L183.828974,55 C185.505709,55 186.4279,55.4805823 186.595573,56.4417614 L190.569416,76.9247159 C190.73709,77.6538862 191.022131,79.6259309 191.424547,82.8409091 L191.625755,82.8409091 C191.860497,80.8854069 192.145538,78.9133622 192.480885,76.9247159 L196.50503,56.4417614 C196.672704,55.4805823 197.594894,55 199.27163,55 L201.132797,55 C203.044275,55 204,55.3645797 204,56.09375 C204,56.3257587 203.949699,56.6240512 203.849095,56.9886364 L196.203219,88.9559659 C196.035546,89.6519921 195.146889,90 193.537223,90 L189.513078,90 Z M222.844875,90 C222.213293,90 221.747924,89.8416682 221.448753,89.525 C221.149583,89.2083317 221,88.7000035 221,88 L221,57 C221,56.2999965 221.149583,55.7916682 221.448753,55.475 C221.747924,55.1583317 222.213293,55 222.844875,55 L237.554017,55 C238.052634,55 238.418281,55.199998 238.65097,55.6 C238.883658,56 239,56.633329 239,57.5 L239,59.05 C239,59.916671 238.883658,60.549998 238.65097,60.95 C238.418281,61.350002 238.052634,61.55 237.554017,61.55 L228.778393,61.55 L228.778393,68.8 L236.556787,68.8 C237.055404,68.8 237.421051,69 237.65374,69.4 C237.886428,69.800002 238.00277,70.433329 238.00277,71.3 L238.00277,72.85 C238.00277,73.716671 237.886428,74.349998 237.65374,74.75 C237.421051,75.150002 237.055404,75.35 236.556787,75.35 L228.778393,75.35 L228.778393,83.45 L237.603878,83.45 C238.102496,83.45 238.459833,83.649998 238.6759,84.05 C238.891968,84.450002 239,85.083329 239,85.95 L239,87.5 C239,88.366671 238.891968,89 238.6759,89.4 C238.459833,89.800002 238.102496,90 237.603878,90 L222.844875,90 Z M261.864198,90 C259.954723,90 259,89.4697023 259,88.4090909 L259,56.5909091 C259,55.5302977 259.954723,55 261.864198,55 L263.148148,55 C263.806588,55 264.333331,55.0911449 264.728395,55.2734375 C265.123459,55.4557301 265.452674,55.8285957 265.716049,56.3920455 L274.604938,72.5994318 C275.065846,73.4611786 275.625511,74.7537793 276.283951,76.4772727 L276.481481,76.3778409 C276.218106,74.6543474 276.08642,73.3451749 276.08642,72.4502841 L276.08642,56.5909091 C276.08642,55.5302977 277.041143,55 278.950617,55 L280.135802,55 C282.045277,55 283,55.5302977 283,56.5909091 L283,88.4090909 C283,89.4697023 282.045277,90 280.135802,90 L279.197531,90 C278.539091,90 277.995887,89.9088551 277.567901,89.7265625 C277.139916,89.5442699 276.79424,89.1714043 276.530864,88.6079545 L267.098765,71.7045455 C266.802468,71.2073839 266.358028,70.1467884 265.765432,68.5227273 L265.518519,68.671875 C265.781894,70.1965038 265.91358,71.3233865 265.91358,72.0525568 L265.91358,88.4090909 C265.91358,89.4697023 264.958857,90 263.049383,90 L261.864198,90 Z M310.922551,90 C308.984804,90 308.015945,89.4681915 308.015945,88.4045584 L308.015945,61.531339 L302.453303,61.531339 C301.952162,61.531339 301.584663,61.3319108 301.350797,60.9330484 C301.116931,60.534186 301,59.9026634 301,59.0384615 L301,57.4928775 C301,56.6286756 301.116931,55.997153 301.350797,55.5982906 C301.584663,55.1994282 301.952162,55 302.453303,55 L321.496583,55 C322.031134,55 322.415337,55.1994282 322.649203,55.5982906 C322.883069,55.997153 323,56.6286756 323,57.4928775 L323,59.0384615 C323,59.9026634 322.883069,60.534186 322.649203,60.9330484 C322.415337,61.3319108 322.031134,61.531339 321.496583,61.531339 L315.883827,61.531339 L315.883827,88.4045584 C315.883827,89.4681915 314.914968,90 312.977221,90 L310.922551,90 Z M151.045226,146 C149.403677,146 147.778903,145.756986 146.170854,145.27095 C144.562806,144.784914 143.390288,144.122909 142.653266,143.284916 C142.217753,142.681561 142,142.094975 142,141.52514 C142,140.586587 142.251254,139.63129 142.753769,138.659218 C143.256284,137.687146 143.809042,137.201117 144.41206,137.201117 C144.680068,137.201117 145.1072,137.368713 145.693467,137.703911 C146.279735,138.039108 146.706866,138.273742 146.974874,138.407821 C148.281414,139.078216 149.437181,139.413408 150.442211,139.413408 C151.514243,139.413408 152.452257,139.162014 153.256281,138.659218 C154.060306,138.156422 154.462312,137.301682 154.462312,136.094972 C154.462312,134.821223 154.077056,133.824026 153.306533,133.103352 C152.53601,132.382678 151.329991,131.586597 149.688442,130.715084 C147.175867,129.273736 145.341714,127.782131 144.18593,126.240223 C143.030145,124.698316 142.452261,122.653644 142.452261,120.106145 C142.452261,118.061442 142.904518,116.276544 143.809045,114.751397 C144.713572,113.226249 145.961466,112.053077 147.552764,111.231844 C149.144062,110.41061 150.961464,110 153.005025,110 C154.144059,110 155.350077,110.175976 156.623116,110.527933 C157.896154,110.87989 158.884419,111.30726 159.58794,111.810056 C160.190958,112.245812 160.492462,112.832399 160.492462,113.569832 C160.492462,114.441345 160.299834,115.363124 159.914573,116.335196 C159.529311,117.307267 159.051929,117.793296 158.482412,117.793296 C158.214404,117.793296 157.728647,117.659219 157.025126,117.391061 C155.718586,116.888266 154.62982,116.636872 153.758794,116.636872 C152.351752,116.636872 151.388612,116.938544 150.869347,117.541899 C150.350081,118.145254 150.090452,118.832398 150.090452,119.603352 C150.090452,120.810062 150.408707,121.723461 151.045226,122.343575 C151.681745,122.96369 152.703511,123.642454 154.110553,124.379888 C154.412062,124.513967 154.864319,124.748602 155.467337,125.083799 C157.778906,126.424588 159.445556,127.865914 160.467337,129.407821 C161.489117,130.949728 162,132.977641 162,135.49162 C162,137.368724 161.597994,139.103344 160.79397,140.695531 C159.989946,142.287717 158.767177,143.569828 157.125628,144.541899 C155.484079,145.513971 153.457298,146 151.045226,146 Z M187.922551,146 C185.984804,146 185.015945,145.468191 185.015945,144.404558 L185.015945,117.531339 L179.453303,117.531339 C178.952162,117.531339 178.584663,117.331911 178.350797,116.933048 C178.116931,116.534186 178,115.902663 178,115.038462 L178,113.492877 C178,112.628676 178.116931,111.997153 178.350797,111.598291 C178.584663,111.199428 178.952162,111 179.453303,111 L198.496583,111 C199.031134,111 199.415337,111.199428 199.649203,111.598291 C199.883069,111.997153 200,112.628676 200,113.492877 L200,115.038462 C200,115.902663 199.883069,116.534186 199.649203,116.933048 C199.415337,117.331911 199.031134,117.531339 198.496583,117.531339 L192.883827,117.531339 L192.883827,144.404558 C192.883827,145.468191 191.914968,146 189.977221,146 L187.922551,146 Z M229.024948,146 C225.266093,146 222.322256,145.053531 220.193347,143.160563 C218.064438,141.267596 217,138.614102 217,135.2 L217,111.622535 C217,110.54084 217.964647,110 219.893971,110 L221.889813,110 C223.819136,110 224.783784,110.54084 224.783784,111.622535 L224.783784,134.692958 C224.783784,136.07888 225.166316,137.202813 225.931393,138.064789 C226.69647,138.926765 227.727644,139.357746 229.024948,139.357746 C230.288988,139.357746 231.311846,138.918314 232.093555,138.039437 C232.875264,137.160559 233.266112,136.045077 233.266112,134.692958 L233.266112,111.622535 C233.266112,110.54084 234.23076,110 236.160083,110 L238.106029,110 C240.035353,110 241,110.54084 241,111.622535 L241,135.2 C241,138.614102 239.943878,141.267596 237.831601,143.160563 C235.719324,145.053531 232.783803,146 229.024948,146 Z M262.85,146 C262.216663,146 261.750001,145.841668 261.45,145.525 C261.149998,145.208332 261,144.700004 261,144 L261,113 C261,112.299997 261.149998,111.791668 261.45,111.475 C261.750001,111.158332 262.216663,111 262.85,111 L272.35,111 C276.683355,111 279.87499,112.449985 281.925,115.35 C283.97501,118.250014 285,122.633304 285,128.5 C285,134.366696 283.97501,138.749985 281.925,141.65 C279.87499,144.550015 276.683355,146 272.35,146 L262.85,146 Z M272.141104,139 C273.875264,139 275.118606,138.171241 275.871166,136.513699 C276.623726,134.856156 277,132.018285 277,128 C277,123.981715 276.623726,121.143844 275.871166,119.486301 C275.118606,117.828759 273.875264,117 272.141104,117 L269,117 L269,139 L272.141104,139 Z M307.955414,146 C305.985128,146 305,145.45468 305,144.364023 L305,112.635977 C305,111.54532 305.985128,111 307.955414,111 L310.095541,111 C312.031857,111 313,111.54532 313,112.635977 L313,144.364023 C313,145.45468 312.031857,146 310.095541,146 L307.955414,146 Z M345.024857,146 C336.341575,146 332,140.00006 332,128 C332,115.99994 336.341575,110 345.024857,110 C349.26707,110 352.49011,111.458086 354.694073,114.374302 C356.898035,117.290517 358,121.832371 358,128 C358,134.167629 356.898035,138.709483 354.694073,141.625698 C352.49011,144.541914 349.26707,146 345.024857,146 Z M345.048544,140 C346.213598,140 347.1521,139.661519 347.864078,138.984547 C348.576055,138.307576 349.110031,137.131355 349.466019,135.45585 C349.822008,133.780345 350,131.453289 350,128.474614 C350,125.529787 349.822008,123.219655 349.466019,121.54415 C349.110031,119.868645 348.576055,118.692424 347.864078,118.015453 C347.1521,117.338481 346.213598,117 345.048544,117 C343.883489,117 342.936897,117.338481 342.208738,118.015453 C341.480579,118.692424 340.930423,119.868645 340.558252,121.54415 C340.186082,123.219655 340,125.529787 340,128.474614 C340,131.419441 340.186082,133.738034 340.558252,135.430464 C340.930423,137.122893 341.480579,138.307576 342.208738,138.984547 C342.936897,139.661519 343.883489,140 345.048544,140 Z" id="VIRTUALEVENTSTUDIO" fill="#131313"></path>
                <g id="sound" transform="translate(0.000000, 28.000000)">
                    <g id="Group" fill="#F44336">
                        <path d="M2.06531277,57.8270149 C0.925295745,57.8270149 0,56.9017191 0,55.7617021 L0,35.1091553 C0,33.9691383 0.925295745,33.0438426 2.06531277,33.0438426 C3.20532979,33.0438426 4.13062553,33.9691383 4.13062553,35.1091553 L4.13062553,55.7617021 C4.13043191,56.9017191 3.20532979,57.8270149 2.06531277,57.8270149 Z" id="Path"></path>
                        <path d="M14.4568021,74.3489362 C13.3167851,74.3489362 12.3914894,73.4236404 12.3914894,72.2836234 L12.3914894,18.587234 C12.3914894,17.447217 13.3167851,16.5219213 14.4568021,16.5219213 C15.5968191,16.5219213 16.5219213,17.447217 16.5219213,18.587234 L16.5219213,72.2836234 C16.5219213,73.4236404 15.5968191,74.3489362 14.4568021,74.3489362 Z" id="Path"></path>
                        <path d="M26.8482915,90.8708574 C25.7082745,90.8708574 24.7829787,89.9455617 24.7829787,88.8055447 L24.7829787,2.06511915 C24.7829787,0.925295745 25.7082745,0 26.8482915,0 C27.9883085,0 28.9136043,0.925295745 28.9136043,2.06531277 L28.9136043,88.8057383 C28.9134106,89.9457553 27.9883085,90.8708574 26.8482915,90.8708574 Z" id="Path"></path>
                        <path d="M39.2397809,86.7404255 C38.0997638,86.7404255 37.1744681,85.8151298 37.1744681,84.6751128 L37.1744681,6.19574468 C37.1744681,5.05572766 38.0997638,4.13043191 39.2397809,4.13043191 C40.3797979,4.13043191 41.3049,5.05572766 41.3049,6.19574468 L41.3049,84.6751128 C41.3049,85.8151298 40.3797979,86.7404255 39.2397809,86.7404255 Z" id="Path"></path>
                        <path d="M51.6312702,70.2185043 C50.4912532,70.2185043 49.5659574,69.2932085 49.5659574,68.1531915 L49.5659574,22.717666 C49.5659574,21.5776489 50.4912532,20.6523532 51.6312702,20.6523532 C52.7712872,20.6523532 53.696583,21.5776489 53.696583,22.717666 L53.696583,68.1531915 C53.6963894,69.2932085 52.7712872,70.2185043 51.6312702,70.2185043 Z" id="Path"></path>
                        <path d="M64.0227596,86.7404255 C62.8827426,86.7404255 61.9574468,85.8151298 61.9574468,84.6751128 L61.9574468,6.19574468 C61.9574468,5.05572766 62.8827426,4.13043191 64.0227596,4.13043191 C65.1627766,4.13043191 66.0880723,5.05572766 66.0880723,6.19574468 L66.0880723,84.6751128 C66.0878787,85.8151298 65.1627766,86.7404255 64.0227596,86.7404255 Z" id="Path"></path>
                        <path d="M76.4142489,70.2185043 C75.2742319,70.2185043 74.3489362,69.2932085 74.3489362,68.1531915 L74.3489362,22.717666 C74.3489362,21.5776489 75.2742319,20.6523532 76.4142489,20.6523532 C77.554266,20.6523532 78.4795617,21.5776489 78.4795617,22.717666 L78.4795617,68.1531915 C78.4793681,69.2932085 77.554266,70.2185043 76.4142489,70.2185043 Z" id="Path"></path>
                        <path d="M88.8057383,57.8270149 C87.6657213,57.8270149 86.7404255,56.9017191 86.7404255,55.7617021 L86.7404255,35.1091553 C86.7404255,33.9691383 87.6657213,33.0438426 88.8057383,33.0438426 C89.9457553,33.0438426 90.8710511,33.9691383 90.8710511,35.1091553 L90.8710511,55.7617021 C90.8708574,56.9017191 89.9457553,57.8270149 88.8057383,57.8270149 Z" id="Path"></path>
                    </g>
                    <path d="M1.89583333,56.875 C0.849366035,56.875 0,55.9548319 0,54.8211324 L0,34.2830342 C0,33.1493348 0.849366035,32.2291667 1.89583333,32.2291667 C2.94230063,32.2291667 3.79166667,33.1493348 3.79166667,34.2830342 L3.79166667,54.8211324 C3.79148894,55.9548319 2.94230063,56.875 1.89583333,56.875 Z" id="Path" stroke="#AB2B42" fill="#AB2B42"></path>
                    <path d="M15.1667555,73.9375 C14.1202392,73.9375 13.2708333,72.9971021 13.2708333,71.8384784 L13.2708333,17.2656882 C13.2708333,16.1070645 14.1202392,15.1666667 15.1667555,15.1666667 C16.2132719,15.1666667 17.0625,16.1070645 17.0625,17.2656882 L17.0625,71.8384784 C17.0625,72.9971021 16.2132719,73.9375 15.1667555,73.9375 Z" id="Path" stroke="#AB2B42" fill="#AB2B42"></path>
                    <path d="M26.5416667,91 C25.4951994,91 24.6458333,90.0733893 24.6458333,88.9317521 L24.6458333,2.06805403 C24.6458333,0.926610743 25.4951994,0 26.5416667,0 C27.588134,0 28.4375,0.926610743 28.4375,2.06824792 L28.4375,88.931946 C28.4373223,90.0735831 27.588134,91 26.5416667,91 Z" id="Path" stroke="#AB2B42" fill="#AB2B42"></path>
                    <path d="M39.8125889,87.2083333 C38.7660725,87.2083333 37.9166667,86.2740022 37.9166667,85.1228531 L37.9166667,5.87714687 C37.9166667,4.72599777 38.7660725,3.79166667 39.8125889,3.79166667 C40.8591052,3.79166667 41.7083333,4.72599777 41.7083333,5.87714687 L41.7083333,85.1228531 C41.7083333,86.2740022 40.8591052,87.2083333 39.8125889,87.2083333 Z" id="Path" stroke="#AB2B42" fill="#AB2B42"></path>
                    <path d="M51.1875,70.1458333 C50.1410327,70.1458333 49.2916667,69.2256616 49.2916667,68.0919577 L49.2916667,22.9080423 C49.2916667,21.7743384 50.1410327,20.8541667 51.1875,20.8541667 C52.2339673,20.8541667 53.0833333,21.7743384 53.0833333,22.9080423 L53.0833333,68.0919577 C53.0831556,69.2256616 52.2339673,70.1458333 51.1875,70.1458333 Z" id="Path" stroke="#AB2B42" fill="#AB2B42"></path>
                    <path d="M64.4583333,87.2083333 C63.411866,87.2083333 62.5625,86.2740022 62.5625,85.1228531 L62.5625,5.87714687 C62.5625,4.72599777 63.411866,3.79166667 64.4583333,3.79166667 C65.5048006,3.79166667 66.3541667,4.72599777 66.3541667,5.87714687 L66.3541667,85.1228531 C66.3539889,86.2740022 65.5048006,87.2083333 64.4583333,87.2083333 Z" id="Path" stroke="#AB2B42" fill="#AB2B42"></path>
                    <path d="M75.8333333,70.1458333 C74.786866,70.1458333 73.9375,69.2256616 73.9375,68.0919577 L73.9375,22.9080423 C73.9375,21.7743384 74.786866,20.8541667 75.8333333,20.8541667 C76.8798006,20.8541667 77.7291667,21.7743384 77.7291667,22.9080423 L77.7291667,68.0919577 C77.7289889,69.2256616 76.8798006,70.1458333 75.8333333,70.1458333 Z" id="Path" stroke="#AB2B42" fill="#AB2B42"></path>
                    <path d="M89.1041667,56.875 C88.0576994,56.875 87.2083333,55.9548319 87.2083333,54.8211324 L87.2083333,34.2830342 C87.2083333,33.1493348 88.0576994,32.2291667 89.1041667,32.2291667 C90.150634,32.2291667 91,33.1493348 91,34.2830342 L91,54.8211324 C90.9998223,55.9548319 90.150634,56.875 89.1041667,56.875 Z" id="Path" stroke="#AB2B42" fill="#AB2B42"></path>
                </g>
            </g>
        </g>
    </g>
</svg>